<svg width="360" height="100" viewBox="0 0 360 100" fill="none" xmlns="http://www.w3.org/2000/svg">
<path d="M279.856 59.9372C279.667 59.9439 279.485 60.001 279.337 60.1002C279.189 60.1995 279.084 60.3356 279.036 60.4885C276.965 65.4116 274.167 68.3446 271.865 68.3446C270.542 68.3446 270.006 67.1152 270.006 65.1856C270.006 60.3617 273.472 50.1351 275.219 45.4711C275.412 44.9864 275.523 44.4817 275.549 43.9715C275.549 42.6153 274.663 41.9482 272.46 41.9482C270.085 41.9482 267.531 42.7201 265.044 46.3586C264.184 43.1611 261.591 41.7608 257.959 41.7608C253.764 41.7608 249.716 44.0101 246.381 47.6542C243.047 51.2983 239.104 52.4946 236.18 51.9047C238.304 47.577 239.091 44.3464 239.091 41.9427C239.091 38.1773 236.862 35.906 233.25 35.906C227.765 35.906 224.603 40.2668 224.603 44.8536C224.603 48.3985 226.535 52.0205 230.775 53.8123C227.216 60.5161 222.029 66.5749 220.058 66.5749C217.511 66.5749 216.75 56.1939 216.909 48.7678C217.002 44.5063 217.425 44.2913 217.425 43.0012C217.425 42.2625 216.849 41.7553 214.534 41.7553C209.142 41.7553 207.475 45.5593 207.217 49.9311C207.137 51.5909 206.826 53.2374 206.291 54.8377C204.035 61.5415 199.391 66.6245 196.368 66.6245C194.965 66.6245 194.581 65.4557 194.581 63.9231C194.581 59.0992 197.823 53.0735 197.823 47.9354C197.823 44.1534 195.838 41.7663 192.087 41.7663C187.675 41.7663 181.833 46.1436 176.309 54.347C178.129 48.0677 178.876 41.9868 173.491 41.9868C172.324 42.0008 171.178 42.2485 170.15 42.709C169.805 42.8435 169.515 43.0617 169.321 43.3351C169.126 43.6085 169.035 43.9244 169.059 44.2416C169.575 50.9289 162.595 68.0524 155.973 68.0524C154.769 68.0524 154.187 66.9498 154.187 65.2132C154.187 60.3783 157.64 50.1792 159.38 45.5041C159.586 44.9935 159.702 44.4604 159.724 43.9219C159.724 42.6429 158.771 41.9868 156.621 41.9868C154.26 41.9868 151.693 42.7366 149.218 46.3642C148.352 43.1666 145.752 41.7663 142.127 41.7663C136.173 41.7663 129.557 47.0092 126.606 53.8453C122.697 62.9694 114.817 71.7847 104.206 71.7847C94.5804 71.7847 89.4997 65.1084 89.4997 54.562C89.4997 39.3296 102.916 26.8867 112.866 26.8867C117.622 26.8867 119.898 29.4116 119.898 33.2873C119.898 37.9789 116.756 40.1565 116.756 41.9427C116.756 42.494 117.298 43.0453 118.383 43.0453C122.71 43.0453 127.797 38.8113 127.797 33.0337C127.797 27.2561 122.154 23 112.198 23C95.7514 23 79.1992 36.7825 79.1992 54.4628C79.1992 68.521 87.5216 77 101.917 77C111.735 77 120.315 70.638 124.939 63.2175C125.462 69.37 128.816 72.5896 133.93 72.5896C138.475 72.5896 142.153 70.3347 144.965 66.3654C146.043 70.5167 148.934 72.5455 152.645 72.5455C156.919 72.5455 160.498 70.2906 163.892 66.0952C163.839 69.403 164.739 72.4848 168.165 72.4848C169.78 72.4848 171.711 72.1706 172.055 70.9963C175.661 58.57 184.572 48.426 187.271 48.426C188.078 48.426 188.303 49.0766 188.303 49.8429C188.303 53.2168 185.445 60.1412 185.445 64.5571C185.445 69.3314 187.88 72.4904 192.914 72.4904C198.491 72.4904 204.161 66.8009 207.938 58.4818C209.122 66.2551 211.676 72.5234 215.679 72.5234C220.587 72.5234 229.307 63.9121 234.592 54.7936C237.461 55.1454 240.382 54.5737 242.763 53.1948C241.455 55.9187 240.77 58.8226 240.745 61.7565C240.745 70.219 245.594 72.5896 249.769 72.5896C254.307 72.5896 257.985 70.3347 260.803 66.3654C261.73 69.9433 264.111 72.5344 268.471 72.5344C275.298 72.5344 281.232 66.7182 281.232 61.944C281.259 60.687 280.61 59.9372 279.856 59.9372ZM138.104 67.9035C135.346 67.9035 134.267 65.588 134.267 62.1369C134.267 56.1442 139.189 46.1491 144.389 46.1491C146.665 46.1491 147.518 48.3544 147.518 51.1109C147.518 57.1807 142.841 67.9035 138.104 67.9035ZM232.575 50.0138C231.043 48.3429 230.251 46.2825 230.332 44.181C230.332 41.7387 231.404 39.6769 232.687 39.6769C233.971 39.6769 234.368 40.7299 234.368 42.1963C234.361 44.6441 233.309 48.222 232.575 50.0138ZM253.963 67.9035C251.204 67.9035 250.126 65.2407 250.126 62.1369C250.126 56.3537 255.048 46.1491 260.287 46.1491C262.563 46.1491 263.37 48.3544 263.37 51.1109C263.37 57.1807 258.772 67.9035 253.963 67.9035Z" fill="white"/>
<path d="M279.856 59.9372C279.667 59.9439 279.485 60.001 279.337 60.1002C279.189 60.1995 279.084 60.3356 279.036 60.4885C276.965 65.4116 274.167 68.3446 271.865 68.3446C270.542 68.3446 270.006 67.1152 270.006 65.1856C270.006 60.3617 273.472 50.1351 275.219 45.4711C275.412 44.9864 275.523 44.4817 275.549 43.9715C275.549 42.6153 274.663 41.9482 272.46 41.9482C270.085 41.9482 267.531 42.7201 265.044 46.3586C264.184 43.1611 261.591 41.7608 257.959 41.7608C253.764 41.7608 249.716 44.0101 246.381 47.6542C243.047 51.2983 239.104 52.4946 236.18 51.9047C238.304 47.577 239.091 44.3464 239.091 41.9427C239.091 38.1773 236.862 35.906 233.25 35.906C227.765 35.906 224.603 40.2668 224.603 44.8536C224.603 48.3985 226.535 52.0205 230.775 53.8123C227.216 60.5161 222.029 66.5749 220.058 66.5749C217.511 66.5749 216.75 56.1939 216.909 48.7678C217.002 44.5063 217.425 44.2913 217.425 43.0012C217.425 42.2625 216.849 41.7553 214.534 41.7553C209.142 41.7553 207.475 45.5593 207.217 49.9311C207.137 51.5909 206.826 53.2374 206.291 54.8377C204.035 61.5415 199.391 66.6245 196.368 66.6245C194.965 66.6245 194.581 65.4557 194.581 63.9231C194.581 59.0992 197.823 53.0735 197.823 47.9354C197.823 44.1534 195.838 41.7663 192.087 41.7663C187.675 41.7663 181.833 46.1436 176.309 54.347C178.129 48.0677 178.876 41.9868 173.491 41.9868C172.324 42.0008 171.178 42.2485 170.15 42.709C169.805 42.8435 169.515 43.0617 169.321 43.3351C169.126 43.6085 169.035 43.9244 169.059 44.2416C169.575 50.9289 162.595 68.0524 155.973 68.0524C154.769 68.0524 154.187 66.9498 154.187 65.2132C154.187 60.3783 157.64 50.1792 159.38 45.5041C159.586 44.9935 159.702 44.4604 159.724 43.9219C159.724 42.6429 158.771 41.9868 156.621 41.9868C154.26 41.9868 151.693 42.7366 149.218 46.3642C148.352 43.1666 145.752 41.7663 142.127 41.7663C136.173 41.7663 129.557 47.0092 126.606 53.8453C122.697 62.9694 114.817 71.7847 104.206 71.7847C94.5804 71.7847 89.4997 65.1084 89.4997 54.562C89.4997 39.3296 102.916 26.8867 112.866 26.8867C117.622 26.8867 119.898 29.4116 119.898 33.2873C119.898 37.9789 116.756 40.1565 116.756 41.9427C116.756 42.494 117.298 43.0453 118.383 43.0453C122.71 43.0453 127.797 38.8113 127.797 33.0337C127.797 27.2561 122.154 23 112.198 23C95.7514 23 79.1992 36.7825 79.1992 54.4628C79.1992 68.521 87.5216 77 101.917 77C111.735 77 120.315 70.638 124.939 63.2175C125.462 69.37 128.816 72.5896 133.93 72.5896C138.475 72.5896 142.153 70.3347 144.965 66.3654C146.043 70.5167 148.934 72.5455 152.645 72.5455C156.919 72.5455 160.498 70.2906 163.892 66.0952C163.839 69.403 164.739 72.4848 168.165 72.4848C169.78 72.4848 171.711 72.1706 172.055 70.9963C175.661 58.57 184.572 48.426 187.271 48.426C188.078 48.426 188.303 49.0766 188.303 49.8429C188.303 53.2168 185.445 60.1412 185.445 64.5571C185.445 69.3314 187.88 72.4904 192.914 72.4904C198.491 72.4904 204.161 66.8009 207.938 58.4818C209.122 66.2551 211.676 72.5234 215.679 72.5234C220.587 72.5234 229.307 63.9121 234.592 54.7936C237.461 55.1454 240.382 54.5737 242.763 53.1948C241.455 55.9187 240.77 58.8226 240.745 61.7565C240.745 70.219 245.594 72.5896 249.769 72.5896C254.307 72.5896 257.985 70.3347 260.803 66.3654C261.73 69.9433 264.111 72.5344 268.471 72.5344C275.298 72.5344 281.232 66.7182 281.232 61.944C281.259 60.687 280.61 59.9372 279.856 59.9372ZM138.104 67.9035C135.346 67.9035 134.267 65.588 134.267 62.1369C134.267 56.1442 139.189 46.1491 144.389 46.1491C146.665 46.1491 147.518 48.3544 147.518 51.1109C147.518 57.1807 142.841 67.9035 138.104 67.9035ZM232.575 50.0138C231.043 48.3429 230.251 46.2825 230.332 44.181C230.332 41.7387 231.404 39.6769 232.687 39.6769C233.971 39.6769 234.368 40.7299 234.368 42.1963C234.361 44.6441 233.309 48.222 232.575 50.0138ZM253.963 67.9035C251.204 67.9035 250.126 65.2407 250.126 62.1369C250.126 56.3537 255.048 46.1491 260.287 46.1491C262.563 46.1491 263.37 48.3544 263.37 51.1109C263.37 57.1807 258.772 67.9035 253.963 67.9035Z" fill="white"/>
<path d="M279.856 59.9372C279.667 59.9439 279.485 60.001 279.337 60.1002C279.189 60.1995 279.084 60.3356 279.036 60.4885C276.965 65.4116 274.167 68.3446 271.865 68.3446C270.542 68.3446 270.006 67.1152 270.006 65.1856C270.006 60.3617 273.472 50.1351 275.219 45.4711C275.412 44.9864 275.523 44.4817 275.549 43.9715C275.549 42.6153 274.663 41.9482 272.46 41.9482C270.085 41.9482 267.531 42.7201 265.044 46.3586C264.184 43.1611 261.591 41.7608 257.959 41.7608C253.764 41.7608 249.716 44.0101 246.381 47.6542C243.047 51.2983 239.104 52.4946 236.18 51.9047C238.304 47.577 239.091 44.3464 239.091 41.9427C239.091 38.1773 236.862 35.906 233.25 35.906C227.765 35.906 224.603 40.2668 224.603 44.8536C224.603 48.3985 226.535 52.0205 230.775 53.8123C227.216 60.5161 222.029 66.5749 220.058 66.5749C217.511 66.5749 216.75 56.1939 216.909 48.7678C217.002 44.5063 217.425 44.2913 217.425 43.0012C217.425 42.2625 216.849 41.7553 214.534 41.7553C209.142 41.7553 207.475 45.5593 207.217 49.9311C207.137 51.5909 206.826 53.2374 206.291 54.8377C204.035 61.5415 199.391 66.6245 196.368 66.6245C194.965 66.6245 194.581 65.4557 194.581 63.9231C194.581 59.0992 197.823 53.0735 197.823 47.9354C197.823 44.1534 195.838 41.7663 192.087 41.7663C187.675 41.7663 181.833 46.1436 176.309 54.347C178.129 48.0677 178.876 41.9868 173.491 41.9868C172.324 42.0008 171.178 42.2485 170.15 42.709C169.805 42.8435 169.515 43.0617 169.321 43.3351C169.126 43.6085 169.035 43.9244 169.059 44.2416C169.575 50.9289 162.595 68.0524 155.973 68.0524C154.769 68.0524 154.187 66.9498 154.187 65.2132C154.187 60.3783 157.64 50.1792 159.38 45.5041C159.586 44.9935 159.702 44.4604 159.724 43.9219C159.724 42.6429 158.771 41.9868 156.621 41.9868C154.26 41.9868 151.693 42.7366 149.218 46.3642C148.352 43.1666 145.752 41.7663 142.127 41.7663C136.173 41.7663 129.557 47.0092 126.606 53.8453C122.697 62.9694 114.817 71.7847 104.206 71.7847C94.5804 71.7847 89.4997 65.1084 89.4997 54.562C89.4997 39.3296 102.916 26.8867 112.866 26.8867C117.622 26.8867 119.898 29.4116 119.898 33.2873C119.898 37.9789 116.756 40.1565 116.756 41.9427C116.756 42.494 117.298 43.0453 118.383 43.0453C122.71 43.0453 127.797 38.8113 127.797 33.0337C127.797 27.2561 122.154 23 112.198 23C95.7514 23 79.1992 36.7825 79.1992 54.4628C79.1992 68.521 87.5216 77 101.917 77C111.735 77 120.315 70.638 124.939 63.2175C125.462 69.37 128.816 72.5896 133.93 72.5896C138.475 72.5896 142.153 70.3347 144.965 66.3654C146.043 70.5167 148.934 72.5455 152.645 72.5455C156.919 72.5455 160.498 70.2906 163.892 66.0952C163.839 69.403 164.739 72.4848 168.165 72.4848C169.78 72.4848 171.711 72.1706 172.055 70.9963C175.661 58.57 184.572 48.426 187.271 48.426C188.078 48.426 188.303 49.0766 188.303 49.8429C188.303 53.2168 185.445 60.1412 185.445 64.5571C185.445 69.3314 187.88 72.4904 192.914 72.4904C198.491 72.4904 204.161 66.8009 207.938 58.4818C209.122 66.2551 211.676 72.5234 215.679 72.5234C220.587 72.5234 229.307 63.9121 234.592 54.7936C237.461 55.1454 240.382 54.5737 242.763 53.1948C241.455 55.9187 240.77 58.8226 240.745 61.7565C240.745 70.219 245.594 72.5896 249.769 72.5896C254.307 72.5896 257.985 70.3347 260.803 66.3654C261.73 69.9433 264.111 72.5344 268.471 72.5344C275.298 72.5344 281.232 66.7182 281.232 61.944C281.259 60.687 280.61 59.9372 279.856 59.9372ZM138.104 67.9035C135.346 67.9035 134.267 65.588 134.267 62.1369C134.267 56.1442 139.189 46.1491 144.389 46.1491C146.665 46.1491 147.518 48.3544 147.518 51.1109C147.518 57.1807 142.841 67.9035 138.104 67.9035ZM232.575 50.0138C231.043 48.3429 230.251 46.2825 230.332 44.181C230.332 41.7387 231.404 39.6769 232.687 39.6769C233.971 39.6769 234.368 40.7299 234.368 42.1963C234.361 44.6441 233.309 48.222 232.575 50.0138ZM253.963 67.9035C251.204 67.9035 250.126 65.2407 250.126 62.1369C250.126 56.3537 255.048 46.1491 260.287 46.1491C262.563 46.1491 263.37 48.3544 263.37 51.1109C263.37 57.1807 258.772 67.9035 253.963 67.9035Z" fill="white"/>
<path d="M279.856 59.9372C279.667 59.9439 279.485 60.001 279.337 60.1002C279.189 60.1995 279.084 60.3356 279.036 60.4885C276.965 65.4116 274.167 68.3446 271.865 68.3446C270.542 68.3446 270.006 67.1152 270.006 65.1856C270.006 60.3617 273.472 50.1351 275.219 45.4711C275.412 44.9864 275.523 44.4817 275.549 43.9715C275.549 42.6153 274.663 41.9482 272.46 41.9482C270.085 41.9482 267.531 42.7201 265.044 46.3586C264.184 43.1611 261.591 41.7608 257.959 41.7608C253.764 41.7608 249.716 44.0101 246.381 47.6542C243.047 51.2983 239.104 52.4946 236.18 51.9047C238.304 47.577 239.091 44.3464 239.091 41.9427C239.091 38.1773 236.862 35.906 233.25 35.906C227.765 35.906 224.603 40.2668 224.603 44.8536C224.603 48.3985 226.535 52.0205 230.775 53.8123C227.216 60.5161 222.029 66.5749 220.058 66.5749C217.511 66.5749 216.75 56.1939 216.909 48.7678C217.002 44.5063 217.425 44.2913 217.425 43.0012C217.425 42.2625 216.849 41.7553 214.534 41.7553C209.142 41.7553 207.475 45.5593 207.217 49.9311C207.137 51.5909 206.826 53.2374 206.291 54.8377C204.035 61.5415 199.391 66.6245 196.368 66.6245C194.965 66.6245 194.581 65.4557 194.581 63.9231C194.581 59.0992 197.823 53.0735 197.823 47.9354C197.823 44.1534 195.838 41.7663 192.087 41.7663C187.675 41.7663 181.833 46.1436 176.309 54.347C178.129 48.0677 178.876 41.9868 173.491 41.9868C172.324 42.0008 171.178 42.2485 170.15 42.709C169.805 42.8435 169.515 43.0617 169.321 43.3351C169.126 43.6085 169.035 43.9244 169.059 44.2416C169.575 50.9289 162.595 68.0524 155.973 68.0524C154.769 68.0524 154.187 66.9498 154.187 65.2132C154.187 60.3783 157.64 50.1792 159.38 45.5041C159.586 44.9935 159.702 44.4604 159.724 43.9219C159.724 42.6429 158.771 41.9868 156.621 41.9868C154.26 41.9868 151.693 42.7366 149.218 46.3642C148.352 43.1666 145.752 41.7663 142.127 41.7663C136.173 41.7663 129.557 47.0092 126.606 53.8453C122.697 62.9694 114.817 71.7847 104.206 71.7847C94.5804 71.7847 89.4997 65.1084 89.4997 54.562C89.4997 39.3296 102.916 26.8867 112.866 26.8867C117.622 26.8867 119.898 29.4116 119.898 33.2873C119.898 37.9789 116.756 40.1565 116.756 41.9427C116.756 42.494 117.298 43.0453 118.383 43.0453C122.71 43.0453 127.797 38.8113 127.797 33.0337C127.797 27.2561 122.154 23 112.198 23C95.7514 23 79.1992 36.7825 79.1992 54.4628C79.1992 68.521 87.5216 77 101.917 77C111.735 77 120.315 70.638 124.939 63.2175C125.462 69.37 128.816 72.5896 133.93 72.5896C138.475 72.5896 142.153 70.3347 144.965 66.3654C146.043 70.5167 148.934 72.5455 152.645 72.5455C156.919 72.5455 160.498 70.2906 163.892 66.0952C163.839 69.403 164.739 72.4848 168.165 72.4848C169.78 72.4848 171.711 72.1706 172.055 70.9963C175.661 58.57 184.572 48.426 187.271 48.426C188.078 48.426 188.303 49.0766 188.303 49.8429C188.303 53.2168 185.445 60.1412 185.445 64.5571C185.445 69.3314 187.88 72.4904 192.914 72.4904C198.491 72.4904 204.161 66.8009 207.938 58.4818C209.122 66.2551 211.676 72.5234 215.679 72.5234C220.587 72.5234 229.307 63.9121 234.592 54.7936C237.461 55.1454 240.382 54.5737 242.763 53.1948C241.455 55.9187 240.77 58.8226 240.745 61.7565C240.745 70.219 245.594 72.5896 249.769 72.5896C254.307 72.5896 257.985 70.3347 260.803 66.3654C261.73 69.9433 264.111 72.5344 268.471 72.5344C275.298 72.5344 281.232 66.7182 281.232 61.944C281.259 60.687 280.61 59.9372 279.856 59.9372ZM138.104 67.9035C135.346 67.9035 134.267 65.588 134.267 62.1369C134.267 56.1442 139.189 46.1491 144.389 46.1491C146.665 46.1491 147.518 48.3544 147.518 51.1109C147.518 57.1807 142.841 67.9035 138.104 67.9035ZM232.575 50.0138C231.043 48.3429 230.251 46.2825 230.332 44.181C230.332 41.7387 231.404 39.6769 232.687 39.6769C233.971 39.6769 234.368 40.7299 234.368 42.1963C234.361 44.6441 233.309 48.222 232.575 50.0138ZM253.963 67.9035C251.204 67.9035 250.126 65.2407 250.126 62.1369C250.126 56.3537 255.048 46.1491 260.287 46.1491C262.563 46.1491 263.37 48.3544 263.37 51.1109C263.37 57.1807 258.772 67.9035 253.963 67.9035Z" fill="white"/>
<path d="M279.856 59.9372C279.667 59.9439 279.485 60.001 279.337 60.1002C279.189 60.1995 279.084 60.3356 279.036 60.4885C276.965 65.4116 274.167 68.3446 271.865 68.3446C270.542 68.3446 270.006 67.1152 270.006 65.1856C270.006 60.3617 273.472 50.1351 275.219 45.4711C275.412 44.9864 275.523 44.4817 275.549 43.9715C275.549 42.6153 274.663 41.9482 272.46 41.9482C270.085 41.9482 267.531 42.7201 265.044 46.3586C264.184 43.1611 261.591 41.7608 257.959 41.7608C253.764 41.7608 249.716 44.0101 246.381 47.6542C243.047 51.2983 239.104 52.4946 236.18 51.9047C238.304 47.577 239.091 44.3464 239.091 41.9427C239.091 38.1773 236.862 35.906 233.25 35.906C227.765 35.906 224.603 40.2668 224.603 44.8536C224.603 48.3985 226.535 52.0205 230.775 53.8123C227.216 60.5161 222.029 66.5749 220.058 66.5749C217.511 66.5749 216.75 56.1939 216.909 48.7678C217.002 44.5063 217.425 44.2913 217.425 43.0012C217.425 42.2625 216.849 41.7553 214.534 41.7553C209.142 41.7553 207.475 45.5593 207.217 49.9311C207.137 51.5909 206.826 53.2374 206.291 54.8377C204.035 61.5415 199.391 66.6245 196.368 66.6245C194.965 66.6245 194.581 65.4557 194.581 63.9231C194.581 59.0992 197.823 53.0735 197.823 47.9354C197.823 44.1534 195.838 41.7663 192.087 41.7663C187.675 41.7663 181.833 46.1436 176.309 54.347C178.129 48.0677 178.876 41.9868 173.491 41.9868C172.324 42.0008 171.178 42.2485 170.15 42.709C169.805 42.8435 169.515 43.0617 169.321 43.3351C169.126 43.6085 169.035 43.9244 169.059 44.2416C169.575 50.9289 162.595 68.0524 155.973 68.0524C154.769 68.0524 154.187 66.9498 154.187 65.2132C154.187 60.3783 157.64 50.1792 159.38 45.5041C159.586 44.9935 159.702 44.4604 159.724 43.9219C159.724 42.6429 158.771 41.9868 156.621 41.9868C154.26 41.9868 151.693 42.7366 149.218 46.3642C148.352 43.1666 145.752 41.7663 142.127 41.7663C136.173 41.7663 129.557 47.0092 126.606 53.8453C122.697 62.9694 114.817 71.7847 104.206 71.7847C94.5804 71.7847 89.4997 65.1084 89.4997 54.562C89.4997 39.3296 102.916 26.8867 112.866 26.8867C117.622 26.8867 119.898 29.4116 119.898 33.2873C119.898 37.9789 116.756 40.1565 116.756 41.9427C116.756 42.494 117.298 43.0453 118.383 43.0453C122.71 43.0453 127.797 38.8113 127.797 33.0337C127.797 27.2561 122.154 23 112.198 23C95.7514 23 79.1992 36.7825 79.1992 54.4628C79.1992 68.521 87.5216 77 101.917 77C111.735 77 120.315 70.638 124.939 63.2175C125.462 69.37 128.816 72.5896 133.93 72.5896C138.475 72.5896 142.153 70.3347 144.965 66.3654C146.043 70.5167 148.934 72.5455 152.645 72.5455C156.919 72.5455 160.498 70.2906 163.892 66.0952C163.839 69.403 164.739 72.4848 168.165 72.4848C169.78 72.4848 171.711 72.1706 172.055 70.9963C175.661 58.57 184.572 48.426 187.271 48.426C188.078 48.426 188.303 49.0766 188.303 49.8429C188.303 53.2168 185.445 60.1412 185.445 64.5571C185.445 69.3314 187.88 72.4904 192.914 72.4904C198.491 72.4904 204.161 66.8009 207.938 58.4818C209.122 66.2551 211.676 72.5234 215.679 72.5234C220.587 72.5234 229.307 63.9121 234.592 54.7936C237.461 55.1454 240.382 54.5737 242.763 53.1948C241.455 55.9187 240.77 58.8226 240.745 61.7565C240.745 70.219 245.594 72.5896 249.769 72.5896C254.307 72.5896 257.985 70.3347 260.803 66.3654C261.73 69.9433 264.111 72.5344 268.471 72.5344C275.298 72.5344 281.232 66.7182 281.232 61.944C281.259 60.687 280.61 59.9372 279.856 59.9372ZM138.104 67.9035C135.346 67.9035 134.267 65.588 134.267 62.1369C134.267 56.1442 139.189 46.1491 144.389 46.1491C146.665 46.1491 147.518 48.3544 147.518 51.1109C147.518 57.1807 142.841 67.9035 138.104 67.9035ZM232.575 50.0138C231.043 48.3429 230.251 46.2825 230.332 44.181C230.332 41.7387 231.404 39.6769 232.687 39.6769C233.971 39.6769 234.368 40.7299 234.368 42.1963C234.361 44.6441 233.309 48.222 232.575 50.0138ZM253.963 67.9035C251.204 67.9035 250.126 65.2407 250.126 62.1369C250.126 56.3537 255.048 46.1491 260.287 46.1491C262.563 46.1491 263.37 48.3544 263.37 51.1109C263.37 57.1807 258.772 67.9035 253.963 67.9035Z" fill="white"/>
<path d="M279.856 59.9372C279.667 59.9439 279.485 60.001 279.337 60.1002C279.189 60.1995 279.084 60.3356 279.036 60.4885C276.965 65.4116 274.167 68.3446 271.865 68.3446C270.542 68.3446 270.006 67.1152 270.006 65.1856C270.006 60.3617 273.472 50.1351 275.219 45.4711C275.412 44.9864 275.523 44.4817 275.549 43.9715C275.549 42.6153 274.663 41.9482 272.46 41.9482C270.085 41.9482 267.531 42.7201 265.044 46.3586C264.184 43.1611 261.591 41.7608 257.959 41.7608C253.764 41.7608 249.716 44.0101 246.381 47.6542C243.047 51.2983 239.104 52.4946 236.18 51.9047C238.304 47.577 239.091 44.3464 239.091 41.9427C239.091 38.1773 236.862 35.906 233.25 35.906C227.765 35.906 224.603 40.2668 224.603 44.8536C224.603 48.3985 226.535 52.0205 230.775 53.8123C227.216 60.5161 222.029 66.5749 220.058 66.5749C217.511 66.5749 216.75 56.1939 216.909 48.7678C217.002 44.5063 217.425 44.2913 217.425 43.0012C217.425 42.2625 216.849 41.7553 214.534 41.7553C209.142 41.7553 207.475 45.5593 207.217 49.9311C207.137 51.5909 206.826 53.2374 206.291 54.8377C204.035 61.5415 199.391 66.6245 196.368 66.6245C194.965 66.6245 194.581 65.4557 194.581 63.9231C194.581 59.0992 197.823 53.0735 197.823 47.9354C197.823 44.1534 195.838 41.7663 192.087 41.7663C187.675 41.7663 181.833 46.1436 176.309 54.347C178.129 48.0677 178.876 41.9868 173.491 41.9868C172.324 42.0008 171.178 42.2485 170.15 42.709C169.805 42.8435 169.515 43.0617 169.321 43.3351C169.126 43.6085 169.035 43.9244 169.059 44.2416C169.575 50.9289 162.595 68.0524 155.973 68.0524C154.769 68.0524 154.187 66.9498 154.187 65.2132C154.187 60.3783 157.64 50.1792 159.38 45.5041C159.586 44.9935 159.702 44.4604 159.724 43.9219C159.724 42.6429 158.771 41.9868 156.621 41.9868C154.26 41.9868 151.693 42.7366 149.218 46.3642C148.352 43.1666 145.752 41.7663 142.127 41.7663C136.173 41.7663 129.557 47.0092 126.606 53.8453C122.697 62.9694 114.817 71.7847 104.206 71.7847C94.5804 71.7847 89.4997 65.1084 89.4997 54.562C89.4997 39.3296 102.916 26.8867 112.866 26.8867C117.622 26.8867 119.898 29.4116 119.898 33.2873C119.898 37.9789 116.756 40.1565 116.756 41.9427C116.756 42.494 117.298 43.0453 118.383 43.0453C122.71 43.0453 127.797 38.8113 127.797 33.0337C127.797 27.2561 122.154 23 112.198 23C95.7514 23 79.1992 36.7825 79.1992 54.4628C79.1992 68.521 87.5216 77 101.917 77C111.735 77 120.315 70.638 124.939 63.2175C125.462 69.37 128.816 72.5896 133.93 72.5896C138.475 72.5896 142.153 70.3347 144.965 66.3654C146.043 70.5167 148.934 72.5455 152.645 72.5455C156.919 72.5455 160.498 70.2906 163.892 66.0952C163.839 69.403 164.739 72.4848 168.165 72.4848C169.78 72.4848 171.711 72.1706 172.055 70.9963C175.661 58.57 184.572 48.426 187.271 48.426C188.078 48.426 188.303 49.0766 188.303 49.8429C188.303 53.2168 185.445 60.1412 185.445 64.5571C185.445 69.3314 187.88 72.4904 192.914 72.4904C198.491 72.4904 204.161 66.8009 207.938 58.4818C209.122 66.2551 211.676 72.5234 215.679 72.5234C220.587 72.5234 229.307 63.9121 234.592 54.7936C237.461 55.1454 240.382 54.5737 242.763 53.1948C241.455 55.9187 240.77 58.8226 240.745 61.7565C240.745 70.219 245.594 72.5896 249.769 72.5896C254.307 72.5896 257.985 70.3347 260.803 66.3654C261.73 69.9433 264.111 72.5344 268.471 72.5344C275.298 72.5344 281.232 66.7182 281.232 61.944C281.259 60.687 280.61 59.9372 279.856 59.9372ZM138.104 67.9035C135.346 67.9035 134.267 65.588 134.267 62.1369C134.267 56.1442 139.189 46.1491 144.389 46.1491C146.665 46.1491 147.518 48.3544 147.518 51.1109C147.518 57.1807 142.841 67.9035 138.104 67.9035ZM232.575 50.0138C231.043 48.3429 230.251 46.2825 230.332 44.181C230.332 41.7387 231.404 39.6769 232.687 39.6769C233.971 39.6769 234.368 40.7299 234.368 42.1963C234.361 44.6441 233.309 48.222 232.575 50.0138ZM253.963 67.9035C251.204 67.9035 250.126 65.2407 250.126 62.1369C250.126 56.3537 255.048 46.1491 260.287 46.1491C262.563 46.1491 263.37 48.3544 263.37 51.1109C263.37 57.1807 258.772 67.9035 253.963 67.9035Z" fill="white"/>
</svg>
