<svg width="360" height="100" viewBox="0 0 360 100" fill="none" xmlns="http://www.w3.org/2000/svg">
<path fill-rule="evenodd" clip-rule="evenodd" d="M85.4479 28.501C90.4114 29.2008 95.2434 30.4396 99.8206 32.1859C107.706 41.7932 111.623 52.6288 110.177 65.1311C104.849 68.4139 98.8822 70.907 92.5384 72.501C91.1099 70.9037 89.8469 69.2081 88.763 67.4325C90.8278 66.7894 92.8209 65.9964 94.7192 65.0626C94.226 64.7841 93.7384 64.4736 93.2616 64.1494C87.7488 66.3098 81.7317 67.43 75.6396 67.43C69.5476 67.43 63.5305 66.3098 58.0176 64.1494C57.5464 64.4507 57.0587 64.7612 56.5601 65.0626C58.4547 65.9949 60.4441 66.7864 62.5053 67.4279C61.4201 69.2043 60.1572 70.9013 58.73 72.501C52.3915 70.9005 46.4293 68.4063 41.1025 65.1265C39.8696 54.3457 42.3354 43.4097 51.4313 32.195C56.013 30.4485 60.8483 29.2067 65.8149 28.501C66.4939 29.5129 67.1084 30.5539 67.656 31.6197C72.9431 30.9558 78.3197 30.9558 83.6068 31.6197C84.1541 30.5538 84.7687 29.5128 85.4479 28.501ZM57.793 52.7019C57.793 55.8982 60.6313 58.4964 64.067 58.4964C67.5684 58.4964 70.2752 55.8982 70.3355 52.7019C70.3958 49.5055 67.5793 46.8845 64.056 46.8845C60.5327 46.8845 57.793 49.5055 57.793 52.7019ZM80.9438 52.7019C80.9438 55.8982 83.7712 58.4964 87.2123 58.4964C90.7137 58.4964 93.4151 55.8982 93.4753 52.7019C93.5356 49.5055 90.7411 46.8845 87.2123 46.8845C83.6835 46.8845 80.9438 49.5055 80.9438 52.7019Z" fill="white"/>
<path fill-rule="evenodd" clip-rule="evenodd" d="M319.532 37.085V60.0987H310.134V55.8977C309.426 57.3933 308.152 58.6562 306.507 59.4959C304.69 60.3584 302.624 60.788 300.534 60.7379C298.568 60.7761 296.632 60.3263 294.973 59.4457C293.366 58.5759 292.086 57.3462 291.279 55.8977C290.4 54.2989 289.961 52.556 289.997 50.7973C289.935 48.9739 290.401 47.1648 291.356 45.5233C292.234 44.0198 293.603 42.7535 295.307 41.8703C297.058 40.9862 299.073 40.532 301.121 40.5598C305.592 40.5598 308.596 42.1793 310.134 45.4183V37.085H319.532ZM308.753 53.6146C309.232 53.2218 309.608 52.7501 309.856 52.2297C310.104 51.7093 310.219 51.1514 310.195 50.5918C310.215 50.0489 310.097 49.5086 309.849 49.0065C309.6 48.5044 309.227 48.0518 308.753 47.6786C307.678 46.9491 306.334 46.5509 304.948 46.5509C303.562 46.5509 302.218 46.9491 301.143 47.6786C300.67 48.0604 300.3 48.5207 300.055 49.0298C299.811 49.5388 299.698 50.085 299.723 50.6329C299.699 51.1859 299.815 51.737 300.062 52.2506C300.309 52.7642 300.683 53.2289 301.159 53.6146C301.662 54.0046 302.254 54.3069 302.9 54.5037C303.545 54.7005 304.231 54.7879 304.918 54.7608C305.617 54.7929 306.316 54.7081 306.975 54.5112C307.634 54.3144 308.238 54.0095 308.753 53.6146Z" fill="white"/>
<path fill-rule="evenodd" clip-rule="evenodd" d="M134.424 37.7246H149.383C152.989 37.7246 156.039 38.1934 158.534 39.131C160.831 39.9358 162.782 41.3017 164.128 43.0488C165.389 44.7747 166.035 46.7637 165.991 48.784C166.019 50.8135 165.348 52.807 164.057 54.5283C162.617 56.3465 160.559 57.7649 158.145 58.6013C155.5 59.6059 152.222 60.1066 148.309 60.1036H134.424V37.7246ZM148.156 54.4095C150.585 54.4095 152.452 53.9042 153.756 52.8936C154.417 52.3592 154.934 51.7132 155.271 50.999C155.608 50.2847 155.759 49.5186 155.712 48.752C155.753 48.0404 155.619 47.3293 155.32 46.6621C155.02 45.9948 154.561 45.3853 153.97 44.8707C152.801 43.9027 151.042 43.4172 148.693 43.4141H144.013V54.4095H148.156Z" fill="white"/>
<path d="M188.391 60.0671C186.418 59.655 184.53 58.9977 182.791 58.1173V52.8114C184.309 53.7315 186.018 54.4095 187.832 54.8114C189.817 55.3159 191.878 55.5789 193.953 55.5922C194.669 55.6241 195.384 55.5211 196.046 55.2908C196.517 55.0899 196.753 54.8342 196.753 54.5694C196.758 54.4214 196.726 54.2741 196.66 54.1367C196.594 53.9993 196.495 53.8745 196.369 53.7703C195.931 53.4898 195.418 53.3032 194.873 53.2269L190.27 52.3639C187.633 51.8525 185.761 51.1447 184.654 50.2406C184.098 49.7736 183.665 49.2154 183.382 48.6015C183.099 47.9876 182.973 47.3313 183.01 46.6744C182.992 45.4839 183.512 44.3312 184.468 43.4461C185.601 42.4473 187.03 41.715 188.61 41.3228C190.644 40.79 192.769 40.5356 194.901 40.5694C196.891 40.5538 198.875 40.7471 200.808 41.1447C202.368 41.4529 203.867 41.9481 205.257 42.615V47.6379C203.953 47.0077 202.552 46.5298 201.092 46.2178C199.511 45.8644 197.88 45.6863 196.243 45.6881C193.839 45.6881 192.638 46.0291 192.638 46.7109C192.634 46.8628 192.683 47.0122 192.781 47.1406C192.878 47.2689 193.019 47.3704 193.186 47.4324C193.842 47.6651 194.53 47.8307 195.235 47.9255L199.071 48.5009C201.562 48.8662 203.419 49.5055 204.643 50.4187C205.867 51.3319 206.481 52.6683 206.484 54.4278C206.504 55.3531 206.232 56.2664 205.697 57.0771C205.161 57.8878 204.381 58.5676 203.432 59.0488C201.412 60.1782 198.528 60.7414 194.78 60.7383C192.625 60.7411 190.478 60.5156 188.391 60.0671Z" fill="white"/>
<path d="M210.577 55.7435C211.768 57.3409 213.497 58.6112 215.547 59.3964C218.05 60.3482 220.781 60.8106 223.531 60.748C226.962 60.809 230.347 60.079 233.312 58.6384V52.9763C232.306 53.464 231.231 53.846 230.112 54.1133C228.885 54.4187 227.611 54.5725 226.331 54.5699C223.851 54.5699 221.958 54.2031 220.654 53.4695C220.055 53.1804 219.559 52.7642 219.216 52.2634C218.873 51.7626 218.695 51.195 218.701 50.6183C218.706 50.0416 218.895 49.4765 219.248 48.9803C219.601 48.4842 220.105 48.0747 220.709 47.7937C222.053 47.0692 223.915 46.7069 226.293 46.7069C227.593 46.6982 228.888 46.86 230.128 47.1864C231.236 47.4735 232.288 47.8934 233.252 48.433V42.5745C230.72 41.232 227.536 40.5608 223.701 40.5608C220.96 40.5022 218.236 40.9448 215.723 41.8576C213.655 42.6092 211.896 43.8469 210.66 45.4193C209.5 46.9597 208.901 48.7471 208.934 50.5654C208.898 52.3847 209.467 54.1769 210.577 55.7435Z" fill="white"/>
<path fill-rule="evenodd" clip-rule="evenodd" d="M242.802 59.3959C240.728 58.6068 238.969 57.3391 237.734 55.7429C236.569 54.1801 235.964 52.3724 235.991 50.5328C235.954 48.7151 236.56 46.9284 237.734 45.3959C238.976 43.8402 240.727 42.6138 242.78 41.8616C247.823 40.1568 253.464 40.1568 258.506 41.8616C260.551 42.608 262.295 43.8285 263.531 45.3776C264.697 46.9158 265.297 48.7047 265.257 50.5237C265.284 52.3614 264.686 54.168 263.531 55.7338C262.308 57.3311 260.558 58.5997 258.49 59.3867C256.011 60.2725 253.343 60.7292 250.646 60.7292C247.949 60.7292 245.281 60.2725 242.802 59.3867V59.3959ZM254.457 53.7246C254.931 53.3169 255.3 52.8328 255.541 52.302C255.782 51.7712 255.891 51.2049 255.86 50.6379C255.893 50.0761 255.785 49.5148 255.544 48.9897C255.302 48.4645 254.932 47.987 254.457 47.5876C253.942 47.1938 253.336 46.8901 252.678 46.6948C252.019 46.4995 251.319 46.4165 250.621 46.4507C249.924 46.4201 249.225 46.5048 248.567 46.6999C247.909 46.8951 247.303 47.1967 246.786 47.5876C246.312 47.9879 245.944 48.4657 245.703 48.9907C245.463 49.5157 245.356 50.0766 245.388 50.6379C245.358 51.2045 245.466 51.7704 245.706 52.301C245.946 52.8317 246.314 53.3161 246.786 53.7246C247.298 54.1234 247.902 54.432 248.561 54.6321C249.22 54.8321 249.921 54.9195 250.621 54.889C251.322 54.923 252.024 54.8372 252.683 54.637C253.343 54.4368 253.947 54.1263 254.457 53.7246Z" fill="white"/>
<path d="M288.309 48.6562V41.7429C287.258 41.2141 286.046 40.9479 284.819 40.9758C283.997 40.9551 283.179 41.0832 282.422 41.3512C281.666 41.6193 280.988 42.0208 280.435 42.5283C279.295 43.5603 278.47 45.163 277.958 47.3365V41.4004H268.753V60.0991H278.15V54.2178C278.15 52.0443 278.698 50.4415 279.794 49.4096C280.89 48.3776 282.468 47.8571 284.512 47.8571C285.844 47.809 287.164 48.0867 288.309 48.6562Z" fill="white"/>
<path d="M173.915 43.3916C176.502 43.3916 178.6 41.8216 178.6 39.8848C178.6 37.948 176.502 36.3779 173.915 36.3779C171.328 36.3779 169.23 37.948 169.23 39.8848C169.23 41.8216 171.328 43.3916 173.915 43.3916Z" fill="white"/>
<path d="M173.911 46.5942C172.301 46.5942 170.707 46.3264 169.223 45.8066V60.1993H178.598V45.8066C177.114 46.3264 175.521 46.5942 173.911 46.5942Z" fill="white"/>
</svg>
