<svg width="137" height="27" viewBox="0 0 137 27" fill="none" xmlns="http://www.w3.org/2000/svg">
<path fill-rule="evenodd" clip-rule="evenodd" d="M22.5964 0.832169C25.0126 1.24096 27.3648 1.96463 29.5929 2.9847C33.4312 8.59675 35.3383 14.9263 34.6341 22.2294C32.0406 24.147 29.1361 25.6034 26.048 26.5345C25.3526 25.6014 24.7378 24.611 24.2102 23.5738C25.2153 23.1981 26.1855 22.7349 27.1096 22.1894C26.8695 22.0267 26.6321 21.8454 26.4001 21.656C23.7165 22.918 20.7875 23.5723 17.8219 23.5723C14.8564 23.5723 11.9273 22.918 9.24375 21.656C9.01436 21.832 8.77696 22.0134 8.53423 22.1894C9.45651 22.734 10.4249 23.1964 11.4283 23.5711C10.9 24.6088 10.2853 25.6001 9.5905 26.5345C6.50502 25.5996 3.60269 24.1426 1.00967 22.2268C0.409521 15.9292 1.60982 9.54098 6.03761 2.99003C8.26794 1.9698 10.6217 1.24441 13.0394 0.832169C13.3699 1.42329 13.669 2.03139 13.9356 2.65395C16.5093 2.26613 19.1265 2.26613 21.7002 2.65395C21.9667 2.03133 22.2658 1.42322 22.5964 0.832169ZM9.13439 14.969C9.13439 16.8361 10.5161 18.3538 12.1885 18.3538C13.8929 18.3538 15.2106 16.8361 15.2399 14.969C15.2693 13.1019 13.8983 11.5708 12.1832 11.5708C10.4681 11.5708 9.13439 13.1019 9.13439 14.969ZM20.4039 14.969C20.4039 16.8361 21.7802 18.3538 23.4553 18.3538C25.1598 18.3538 26.4748 16.8361 26.5041 14.969C26.5334 13.1019 25.1731 11.5708 23.4553 11.5708C21.7376 11.5708 20.4039 13.1019 20.4039 14.969Z" fill="white"/>
<path fill-rule="evenodd" clip-rule="evenodd" d="M136.545 5.84645V19.2898H131.971V16.8358C131.626 17.7095 131.006 18.4472 130.205 18.9377C129.321 19.4415 128.315 19.6925 127.298 19.6632C126.34 19.6855 125.398 19.4227 124.59 18.9083C123.808 18.4002 123.185 17.6819 122.793 16.8358C122.364 15.9019 122.151 14.8837 122.168 13.8564C122.138 12.7913 122.365 11.7346 122.83 10.7757C123.257 9.89738 123.924 9.15768 124.753 8.64181C125.606 8.12534 126.586 7.85999 127.583 7.87629C129.76 7.87629 131.222 8.8223 131.971 10.7143V5.84645H136.545ZM131.299 15.5022C131.532 15.2727 131.715 14.9972 131.835 14.6932C131.956 14.3891 132.012 14.0633 132 13.7364C132.01 13.4193 131.953 13.1037 131.832 12.8104C131.711 12.517 131.529 12.2527 131.299 12.0346C130.775 11.6086 130.121 11.3759 129.446 11.3759C128.771 11.3759 128.117 11.6086 127.594 12.0346C127.364 12.2577 127.184 12.5266 127.065 12.8239C126.945 13.1213 126.89 13.4404 126.903 13.7604C126.891 14.0834 126.947 14.4054 127.068 14.7054C127.188 15.0054 127.37 15.2768 127.602 15.5022C127.847 15.73 128.135 15.9065 128.449 16.0215C128.763 16.1365 129.097 16.1875 129.432 16.1717C129.772 16.1905 130.112 16.1409 130.433 16.0259C130.754 15.9109 131.048 15.7328 131.299 15.5022Z" fill="white"/>
<path fill-rule="evenodd" clip-rule="evenodd" d="M46.4375 6.2201H53.7193C55.4744 6.2201 56.9592 6.49394 58.1738 7.04164C59.292 7.51174 60.2415 8.30966 60.8971 9.3302C61.5109 10.3384 61.8254 11.5002 61.804 12.6804C61.8175 13.8659 61.4907 15.0304 60.8624 16.0359C60.1616 17.098 59.1594 17.9265 57.9844 18.4151C56.6969 19.0019 55.101 19.2944 53.1965 19.2927H46.4375V6.2201ZM53.1218 15.9665C54.3043 15.9665 55.213 15.6713 55.8478 15.081C56.1697 14.7688 56.4212 14.3915 56.5854 13.9742C56.7497 13.557 56.8228 13.1095 56.8001 12.6617C56.8199 12.246 56.7549 11.8306 56.6091 11.4409C56.4633 11.0511 56.2397 10.6951 55.9519 10.3945C55.3828 9.82899 54.5266 9.54536 53.3832 9.54359H51.1053V15.9665H53.1218Z" fill="white"/>
<path d="M72.7078 19.2713C71.7471 19.0306 70.8282 18.6467 69.9818 18.1324V15.033C70.7207 15.5704 71.5527 15.9665 72.4357 16.2012C73.4017 16.496 74.4052 16.6496 75.4152 16.6574C75.7637 16.676 76.112 16.6158 76.4341 16.4813C76.6635 16.364 76.7782 16.2146 76.7782 16.0599C76.7806 15.9734 76.7653 15.8874 76.7332 15.8071C76.7011 15.7268 76.6528 15.654 76.5915 15.5931C76.3784 15.4292 76.1283 15.3202 75.8633 15.2757L73.6227 14.7716C72.3388 14.4728 71.4275 14.0594 70.8887 13.5313C70.6182 13.2584 70.4074 12.9324 70.2696 12.5738C70.1319 12.2151 70.0702 11.8318 70.0885 11.4481C70.0795 10.7526 70.3328 10.0793 70.798 9.56227C71.3495 8.97886 72.045 8.55106 72.8145 8.32197C73.8047 8.01073 74.8388 7.8621 75.8766 7.88186C76.8454 7.87276 77.8114 7.98568 78.752 8.21794C79.5117 8.39794 80.2413 8.68725 80.9179 9.07682V12.0109C80.2834 11.6428 79.6013 11.3636 78.8907 11.1813C78.1208 10.9749 77.3272 10.8709 76.5301 10.8719C75.36 10.8719 74.775 11.0711 74.775 11.4694C74.7731 11.5581 74.7973 11.6454 74.8448 11.7204C74.8922 11.7953 74.9607 11.8546 75.0417 11.8908C75.3614 12.0268 75.6964 12.1235 76.0393 12.1789L77.9064 12.515C79.1192 12.7284 80.0234 13.1018 80.6191 13.6353C81.2148 14.1687 81.5136 14.9494 81.5154 15.9772C81.5248 16.5177 81.3927 17.0512 81.132 17.5247C80.8714 17.9983 80.4914 18.3954 80.0297 18.6765C79.0463 19.3362 77.6424 19.6652 75.8179 19.6634C74.7688 19.6651 73.7237 19.5333 72.7078 19.2713Z" fill="white"/>
<path d="M83.5079 16.7457C84.0876 17.6788 84.9289 18.4209 85.9272 18.8796C87.1455 19.4356 88.4748 19.7056 89.8135 19.6691C91.4837 19.7047 93.1314 19.2783 94.5747 18.4368V15.1293C94.0849 15.4142 93.5616 15.6373 93.0169 15.7935C92.4198 15.9718 91.7997 16.0617 91.1765 16.0602C89.9691 16.0602 89.0479 15.8459 88.4131 15.4174C88.1216 15.2485 87.8801 15.0054 87.713 14.7129C87.546 14.4203 87.4594 14.0887 87.4622 13.7519C87.4649 13.415 87.5567 13.0849 87.7285 12.7951C87.9002 12.5052 88.1456 12.2661 88.4398 12.1019C89.0942 11.6787 90.0002 11.4671 91.1578 11.4671C91.791 11.462 92.4211 11.5565 93.025 11.7471C93.5644 11.9149 94.0765 12.1602 94.5453 12.4753V9.05314C93.313 8.26895 91.7633 7.87685 89.8962 7.87685C88.5618 7.84261 87.2362 8.10118 86.0125 8.63437C85.0061 9.07338 84.1496 9.79641 83.5479 10.7149C82.9834 11.6147 82.6916 12.6588 82.7077 13.721C82.6902 14.7837 82.9671 15.8306 83.5079 16.7457Z" fill="white"/>
<path fill-rule="evenodd" clip-rule="evenodd" d="M99.1944 18.8792C98.185 18.4183 97.3287 17.6778 96.7271 16.7454C96.1601 15.8325 95.8658 14.7765 95.8789 13.702C95.8608 12.6401 96.1558 11.5965 96.7271 10.7012C97.3319 9.7925 98.1844 9.07607 99.1837 8.63671C101.638 7.64085 104.384 7.64085 106.839 8.63671C107.834 9.07271 108.683 9.78563 109.285 10.6905C109.852 11.5891 110.144 12.6341 110.125 13.6966C110.138 14.7701 109.847 15.8254 109.285 16.74C108.69 17.6731 107.838 18.4142 106.831 18.8739C105.624 19.3913 104.325 19.6581 103.013 19.6581C101.7 19.6581 100.401 19.3913 99.1944 18.8739V18.8792ZM104.868 15.5664C105.099 15.3283 105.278 15.0455 105.395 14.7354C105.513 14.4253 105.566 14.0945 105.551 13.7633C105.567 13.4352 105.514 13.1073 105.397 12.8005C105.279 12.4938 105.099 12.2148 104.868 11.9815C104.617 11.7514 104.322 11.5741 104.002 11.46C103.681 11.3459 103.341 11.2974 103.001 11.3174C102.661 11.2995 102.321 11.349 102.001 11.463C101.68 11.577 101.386 11.7532 101.134 11.9815C100.903 12.2154 100.724 12.4944 100.607 12.8011C100.49 13.1078 100.437 13.4354 100.453 13.7633C100.438 14.0943 100.491 14.4248 100.608 14.7348C100.725 15.0448 100.904 15.3278 101.134 15.5664C101.383 15.7994 101.677 15.9796 101.998 16.0965C102.319 16.2134 102.66 16.2644 103.001 16.2466C103.342 16.2664 103.683 16.2163 104.005 16.0994C104.326 15.9824 104.619 15.801 104.868 15.5664Z" fill="white"/>
<path d="M121.347 12.6057V8.56737C120.835 8.25848 120.245 8.10295 119.647 8.11926C119.247 8.10719 118.849 8.18201 118.481 8.33858C118.113 8.49514 117.783 8.72972 117.514 9.02615C116.959 9.62896 116.557 10.5652 116.308 11.8348V8.36732H111.827V19.29H116.401V15.8545C116.401 14.5849 116.668 13.6486 117.202 13.0458C117.735 12.443 118.503 12.1389 119.498 12.1389C120.147 12.1108 120.789 12.2731 121.347 12.6057Z" fill="white"/>
<path d="M65.6611 9.53046C66.9206 9.53046 67.9417 8.61331 67.9417 7.48195C67.9417 6.35059 66.9206 5.43344 65.6611 5.43344C64.4016 5.43344 63.3805 6.35059 63.3805 7.48195C63.3805 8.61331 64.4016 9.53046 65.6611 9.53046Z" fill="white"/>
<path d="M65.659 11.4012C64.8753 11.4012 64.0995 11.2448 63.3771 10.9412V19.3486H67.9409V10.9412C67.2184 11.2448 66.4427 11.4012 65.659 11.4012Z" fill="white"/>
</svg>
