<svg width="98" height="36" viewBox="0 0 98 36" fill="none" xmlns="http://www.w3.org/2000/svg">
<path d="M0.694275 0.962004L0.694275 28.0351L4.17777 28.0458L4.17777 15.1533H12.5767V11.7455H4.17777V4.3681H15.1162V0.960312L0.694275 0.962004Z" fill="white"/>
<path d="M21.3833 6.45761C22.6381 6.45761 23.6552 5.44046 23.6552 4.18574C23.6552 2.93103 22.6381 1.91388 21.3833 1.91388C20.1287 1.91388 19.1115 2.93103 19.1115 4.18574C19.1115 5.44046 20.1287 6.45761 21.3833 6.45761Z" fill="white"/>
<path d="M19.6153 9.86623V28.0412H23.0988V9.86623H19.6153Z" fill="white"/>
<path fill-rule="evenodd" clip-rule="evenodd" d="M36.0181 9.33571C31.3922 9.33571 28.164 13.248 28.164 17.893C28.164 22.5381 31.3922 26.4504 36.0181 26.4504C38.1359 26.4504 39.8812 25.6304 41.1514 24.2958V26.7155C41.1514 29.7267 38.7861 32.2436 35.699 32.2436C34.5894 32.2436 33.4869 31.8135 32.6086 31.2081L30.8631 34.2312C32.2572 35.1298 33.9172 35.6514 35.699 35.6514C40.6342 35.6514 44.6348 31.6506 44.6348 26.7155V9.8658H41.1514V11.4904C39.8812 10.1556 38.1359 9.33571 36.0181 9.33571ZM31.6475 17.893C31.6475 15.0098 33.853 12.7435 36.3968 12.7435C38.9406 12.7435 41.146 15.0098 41.146 17.893C41.146 20.7763 38.9406 23.0426 36.3968 23.0426C33.853 23.0426 31.6475 20.7763 31.6475 17.893Z" fill="white"/>
<path d="M57.1897 12.7435C55.1299 12.7435 53.4601 14.489 53.4601 16.5488V28.0407H49.9766V9.8658H53.4601V11.5307C54.4808 10.2113 55.9845 9.33571 57.947 9.33571C60.3878 9.33571 62.2613 10.5481 63.3463 12.4035C64.5528 10.6113 66.5209 9.33571 68.8897 9.33571C72.8544 9.33571 75.3222 12.5345 75.3456 16.492C75.3456 16.504 75.3456 16.5159 75.3456 16.528V16.5299C75.3456 16.5362 75.3456 16.5425 75.3456 16.5488V28.0407H71.8621V16.5488C71.8621 14.489 70.1922 12.7435 68.1324 12.7435C66.0725 12.7435 64.4028 14.489 64.4028 16.5488V28.0407H60.9193V16.5488C60.9193 14.489 59.2495 12.7435 57.1897 12.7435Z" fill="white"/>
<path fill-rule="evenodd" clip-rule="evenodd" d="M93.8972 11.9261C92.3474 10.3259 90.225 9.33571 87.7632 9.33571C82.5809 9.33571 78.9031 13.7235 78.9031 18.9532C78.9031 24.183 82.5809 28.5708 87.7632 28.5708C90.225 28.5708 92.3474 27.5807 93.8972 25.9804V28.0407H97.3807V9.8658H93.8972V11.9261ZM82.3866 18.9532C82.3866 15.4837 85.0431 12.7435 88.1419 12.7435C91.2405 12.7435 93.8972 15.4837 93.8972 18.9532C93.8972 22.4229 91.2405 25.163 88.1419 25.163C85.0431 25.163 82.3866 22.4229 82.3866 18.9532Z" fill="white"/>
</svg>
