<svg width="360" height="100" viewBox="0 0 360 100" fill="none" xmlns="http://www.w3.org/2000/svg">
<path d="M80.4023 20.0029V66.3494L87.5584 66.3678V44.297H104.812V38.4633H87.5584V25.8338H110.029V20L80.4023 20.0029Z" fill="white"/>
<path d="M122.904 29.4109C125.481 29.4109 127.571 27.6696 127.571 25.5216C127.571 23.3737 125.481 21.6324 122.904 21.6324C120.326 21.6324 118.237 23.3737 118.237 25.5216C118.237 27.6696 120.326 29.4109 122.904 29.4109Z" fill="white"/>
<path d="M119.272 35.2461V66.3599H126.428V35.2461H119.272Z" fill="white"/>
<path fill-rule="evenodd" clip-rule="evenodd" d="M152.968 34.3379C143.465 34.3379 136.833 41.0354 136.833 48.9872C136.833 56.9392 143.465 63.6366 152.968 63.6366C157.318 63.6366 160.903 62.233 163.513 59.9481V64.0904C163.513 69.2454 158.654 73.5541 152.312 73.5541C150.033 73.5541 147.768 72.8178 145.963 71.7815L142.378 76.9566C145.242 78.495 148.652 79.3879 152.312 79.3879C162.451 79.3879 170.669 72.5389 170.669 64.0904V35.2454H163.513V38.0265C160.903 35.7415 157.318 34.3379 152.968 34.3379ZM143.989 48.9872C143.989 44.0513 148.52 40.1717 153.745 40.1717C158.971 40.1717 163.502 44.0513 163.502 48.9872C163.502 53.9231 158.971 57.8028 153.745 57.8028C148.52 57.8028 143.989 53.9231 143.989 48.9872Z" fill="white"/>
<path d="M196.46 40.1717C192.229 40.1717 188.799 43.1598 188.799 46.6861V66.3592H181.642V35.2454H188.799V38.0956C190.895 35.8368 193.984 34.3379 198.016 34.3379C203.03 34.3379 206.879 36.4134 209.108 39.5897C211.586 36.5216 215.629 34.3379 220.495 34.3379C228.64 34.3379 233.71 39.8139 233.758 46.5888C233.758 46.6093 233.758 46.6297 233.758 46.6504V46.6536C233.758 46.6644 233.758 46.6752 233.758 46.6861V66.3592H226.601V46.6861C226.601 43.1598 223.171 40.1717 218.94 40.1717C214.708 40.1717 211.278 43.1598 211.278 46.6861V66.3592H204.122V46.6861C204.122 43.1598 200.692 40.1717 196.46 40.1717Z" fill="white"/>
<path fill-rule="evenodd" clip-rule="evenodd" d="M271.868 38.7724C268.684 36.0329 264.324 34.3379 259.267 34.3379C248.621 34.3379 241.066 41.8494 241.066 50.8021C241.066 59.755 248.621 67.2665 259.267 67.2665C264.324 67.2665 268.684 65.5716 271.868 62.832V66.3592H279.024V35.2454H271.868V38.7724ZM248.222 50.8021C248.222 44.8626 253.679 40.1717 260.045 40.1717C266.41 40.1717 271.868 44.8626 271.868 50.8021C271.868 56.7419 266.41 61.4327 260.045 61.4327C253.679 61.4327 248.222 56.7419 248.222 50.8021Z" fill="white"/>
</svg>
