<svg width="360" height="100" viewBox="0 0 360 100" fill="none" xmlns="http://www.w3.org/2000/svg">
<path d="M194.269 42.0664C191.148 42.0664 188.822 43.3447 188.822 46.4186C188.822 48.7344 190.353 50.3436 194.1 50.3436C197.277 50.3436 199.435 48.7854 199.435 46.3229C199.435 43.5333 197.504 42.0664 194.269 42.0664ZM188.027 63.7784C187.289 64.5338 186.552 65.3382 186.552 66.2849C186.552 68.1762 189.444 68.7436 193.418 68.7436C196.712 68.7436 201.195 68.5523 201.195 66.0028C201.195 64.4849 199.038 64.3914 196.312 64.249L188.027 63.7784ZM204.828 42.2088C205.847 43.2979 206.928 44.8115 206.928 46.9876C206.928 52.2354 201.99 55.3115 194.839 55.3115C193.02 55.3115 191.375 55.1224 190.353 54.8849L188.481 57.392L194.042 57.6746C203.863 58.1963 209.651 58.4344 209.651 64.7224C209.651 70.1615 203.919 73.236 194.042 73.236C183.77 73.236 179.852 71.0599 179.852 67.3229C179.852 65.1941 180.989 64.0621 182.976 62.4979C181.101 61.8398 180.479 60.6572 180.479 59.3789C180.479 58.3387 181.101 57.392 182.125 56.492C183.146 55.5941 184.28 54.6958 185.643 53.6556C182.864 52.5197 180.762 50.0594 180.762 46.5588C180.762 41.1197 185.074 37.3849 193.759 37.3849C196.2 37.3849 197.675 37.5719 198.982 37.8588H210.051V41.8773L204.828 42.2088Z" fill="white"/>
<path d="M220.036 33.613C216.801 33.613 214.928 32.0533 214.928 29.3543C214.928 26.6603 216.801 25.1935 220.036 25.1935C223.33 25.1935 225.203 26.6609 225.203 29.3543C225.203 32.0527 223.33 33.613 220.036 33.613ZM212.714 62.0397V58.3027L215.609 57.9734C216.404 57.8783 216.518 57.7359 216.518 57.0245V43.1196C216.518 42.6016 216.347 42.2685 215.779 42.1283L212.714 41.2283L213.338 37.3984H225.088V57.0255C225.088 57.7859 225.144 57.8788 225.998 57.9745L228.891 58.3038V62.0402L212.714 62.0397Z" fill="white"/>
<path d="M251.333 60.2047C248.893 61.1966 245.318 62.0966 242.081 62.0966C235.327 62.0966 232.774 59.8275 232.774 54.4797V42.09C232.774 41.8053 232.774 41.6167 232.318 41.6167H228.344V37.4069C233.342 36.9335 235.327 34.8509 235.951 29.696H241.344V36.4134C241.344 36.7444 241.344 36.8862 241.798 36.8862H249.8V41.6167H241.344V52.9194C241.344 55.7107 242.139 56.7977 245.204 56.7977C246.793 56.7977 248.439 56.4667 249.8 56.0422L251.333 60.2047Z" fill="white"/>
<path d="M167.517 47.5593L141.565 25.935C141.21 25.6386 140.788 25.4035 140.323 25.243C139.859 25.0826 139.361 25 138.858 25C138.355 25 137.857 25.0826 137.392 25.243C136.928 25.4035 136.506 25.6386 136.15 25.935L130.763 30.4262L137.598 36.1216C138.401 35.8942 139.265 35.8587 140.092 36.0191C140.918 36.1795 141.674 36.5295 142.274 37.0293C142.878 37.5328 143.299 38.1677 143.49 38.8614C143.681 39.5551 143.634 40.2795 143.354 40.9518L149.943 46.4413C150.75 46.2077 151.62 46.1684 152.453 46.3278C153.285 46.4872 154.047 46.8389 154.651 47.3426C155.074 47.695 155.41 48.1133 155.638 48.5738C155.867 49.0342 155.985 49.5277 155.985 50.0261C155.985 50.5245 155.867 51.018 155.638 51.4785C155.41 51.9389 155.074 52.3573 154.651 52.7097C153.796 53.4215 152.637 53.8213 151.428 53.8213C150.22 53.8213 149.06 53.4215 148.205 52.7097C147.57 52.1795 147.137 51.5045 146.961 50.7698C146.786 50.0351 146.874 49.2734 147.217 48.5807L141.072 43.4616V56.9357C141.721 57.2027 142.283 57.5946 142.714 58.079C143.145 58.5634 143.431 59.1263 143.548 59.7211C143.666 60.3159 143.612 60.9255 143.39 61.4994C143.169 62.0734 142.787 62.595 142.275 63.0213C141.852 63.3738 141.35 63.6533 140.798 63.8441C140.245 64.0348 139.653 64.133 139.055 64.133C138.457 64.133 137.864 64.0348 137.312 63.8441C136.759 63.6533 136.257 63.3738 135.834 63.0213C135.411 62.6689 135.076 62.2505 134.847 61.79C134.618 61.3295 134.5 60.8359 134.5 60.3375C134.5 59.839 134.618 59.3454 134.847 58.8849C135.076 58.4245 135.411 58.0061 135.834 57.6537C136.261 57.2978 136.767 57.0159 137.325 56.8241V43.226C136.769 43.0354 136.265 42.7552 135.84 42.4015C135.415 42.0479 135.078 41.6277 134.848 41.1652C134.618 40.7027 134.501 40.207 134.502 39.7064C134.503 39.2059 134.622 38.7105 134.854 38.2486L128.115 32.6319L110.319 47.4579C109.602 48.0567 109.199 48.8681 109.199 49.714C109.199 50.56 109.602 51.3714 110.319 51.9701L136.272 73.5971C136.99 74.1945 137.964 74.53 138.979 74.53C139.994 74.53 140.967 74.1945 141.686 73.5971L167.517 52.0715C168.234 51.4727 168.637 50.6613 168.637 49.8154C168.637 48.9694 168.234 48.158 167.517 47.5593Z" fill="white"/>
</svg>
