<svg width="119" height="50" viewBox="0 0 119 50" fill="none" xmlns="http://www.w3.org/2000/svg">
<path d="M70.8913 17.0664C68.2907 17.0664 66.3527 18.3447 66.3527 21.4186C66.3527 23.7344 67.6282 25.3436 70.751 25.3436C73.3983 25.3436 75.1967 23.7854 75.1967 21.3229C75.1967 18.5333 73.5874 17.0664 70.8913 17.0664ZM65.6902 38.7784C65.0744 39.5338 64.4608 40.3382 64.4608 41.2849C64.4608 43.1762 66.8706 43.7436 70.182 43.7436C72.9271 43.7436 76.6635 43.5523 76.6635 41.0028C76.6635 39.4849 74.8657 39.3914 72.594 39.249L65.6902 38.7784ZM79.6907 17.2088C80.5401 18.2979 81.4407 19.8115 81.4407 21.9876C81.4407 27.2354 77.326 30.3115 71.3668 30.3115C69.851 30.3115 68.4798 30.1224 67.6282 29.8849L66.0684 32.392L70.7021 32.6746C78.8863 33.1963 83.7097 33.4344 83.7097 39.7224C83.7097 45.1615 78.9331 48.236 70.7021 48.236C62.1424 48.236 58.8777 46.0599 58.8777 42.3229C58.8777 40.1941 59.8244 39.0621 61.4804 37.4979C59.9179 36.8398 59.4 35.6572 59.4 34.3789C59.4 33.3387 59.9179 32.392 60.7712 31.492C61.6223 30.5941 62.5674 29.6958 63.7032 28.6556C61.3869 27.5197 59.6353 25.0594 59.6353 21.5588C59.6353 16.1197 63.2293 12.3849 70.4668 12.3849C72.5005 12.3849 73.7298 12.5719 74.819 12.8588H84.0429V16.8773L79.6907 17.2088Z" fill="white"/>
<path d="M92.3641 8.61304C89.6679 8.61304 88.1076 7.05325 88.1076 4.35434C88.1076 1.66032 89.6679 0.193472 92.3641 0.193472C95.1087 0.193472 96.6695 1.66086 96.6695 4.35434C96.6695 7.05271 95.1092 8.61304 92.3641 8.61304ZM86.2625 37.0397V33.3027L88.6745 32.9734C89.337 32.8783 89.4321 32.7359 89.4321 32.0245V18.1196C89.4321 17.6016 89.2902 17.2685 88.8169 17.1283L86.2625 16.2283L86.7826 12.3984H96.5739V32.0255C96.5739 32.7859 96.6206 32.8788 97.3321 32.9745L99.7435 33.3038V37.0402L86.2625 37.0397Z" fill="white"/>
<path d="M118.445 35.2047C116.411 36.1966 113.432 37.0966 110.735 37.0966C105.106 37.0966 102.979 34.8275 102.979 29.4797V17.09C102.979 16.8053 102.979 16.6167 102.599 16.6167H99.2873V12.4069C103.452 11.9335 105.106 9.85091 105.626 4.69602H110.121V11.4134C110.121 11.7444 110.121 11.8862 110.499 11.8862H117.167V16.6167H110.121V27.9194C110.121 30.7107 110.783 31.7977 113.337 31.7977C114.662 31.7977 116.033 31.4667 117.167 31.0422L118.445 35.2047Z" fill="white"/>
<path d="M48.598 22.5593L26.9719 0.935045C26.6756 0.638612 26.3239 0.403457 25.9367 0.243018C25.5495 0.0825789 25.1346 0 24.7155 0C24.2964 0 23.8814 0.0825789 23.4942 0.243018C23.1071 0.403457 22.7553 0.638612 22.4591 0.935045L17.97 5.42623L23.6654 11.1216C24.335 10.8942 25.0549 10.8587 25.7436 11.0191C26.4324 11.1795 27.0625 11.5295 27.5627 12.0293C28.0656 12.5328 28.4168 13.1677 28.5759 13.8614C28.735 14.5551 28.6956 15.2795 28.4623 15.9518L33.9535 21.4413C34.626 21.2077 35.3507 21.1684 36.0446 21.3278C36.7385 21.4872 37.3734 21.8389 37.8766 22.3426C38.229 22.695 38.5086 23.1133 38.6994 23.5738C38.8901 24.0342 38.9883 24.5277 38.9883 25.0261C38.9883 25.5245 38.8901 26.018 38.6994 26.4785C38.5086 26.9389 38.229 27.3573 37.8766 27.7097C37.164 28.4215 36.198 28.8213 35.1908 28.8213C34.1836 28.8213 33.2176 28.4215 32.5051 27.7097C31.9757 27.1795 31.6151 26.5045 31.4685 25.7698C31.322 25.0351 31.396 24.2734 31.6814 23.5807L26.5606 18.4616V31.9357C27.1011 32.2027 27.5702 32.5946 27.9291 33.079C28.2879 33.5634 28.5262 34.1263 28.6242 34.7211C28.7222 35.3159 28.6771 35.9255 28.4926 36.4994C28.3081 37.0734 27.9895 37.595 27.5632 38.0213C27.2108 38.3738 26.7924 38.6533 26.332 38.8441C25.8715 39.0348 25.378 39.133 24.8796 39.133C24.3812 39.133 23.8877 39.0348 23.4272 38.8441C22.9668 38.6533 22.5484 38.3738 22.196 38.0213C21.8435 37.6689 21.5638 37.2505 21.373 36.79C21.1822 36.3295 21.084 35.8359 21.084 35.3375C21.084 34.839 21.1822 34.3454 21.373 33.8849C21.5638 33.4245 21.8435 33.0061 22.196 32.6537C22.5511 32.2978 22.9732 32.0159 23.438 31.8241V18.226C22.9751 18.0354 22.5546 17.7552 22.2004 17.4015C21.8462 17.0479 21.5653 16.6277 21.374 16.1652C21.1827 15.7027 21.0846 15.207 21.0854 14.7064C21.0863 14.2059 21.186 13.7105 21.3788 13.2486L15.7632 7.63194L0.933226 22.4579C0.335628 23.0567 0 23.8681 0 24.714C0 25.56 0.335628 26.3714 0.933226 26.9701L22.5604 48.5971C23.1592 49.1945 23.9704 49.53 24.8163 49.53C25.6621 49.53 26.4734 49.1945 27.0721 48.5971L48.598 27.0715C49.1956 26.4727 49.5312 25.6613 49.5312 24.8154C49.5312 23.9694 49.1956 23.158 48.598 22.5593Z" fill="white"/>
</svg>
