<svg width="360" height="100" viewBox="0 0 360 100" fill="none" xmlns="http://www.w3.org/2000/svg">
<path fill-rule="evenodd" clip-rule="evenodd" d="M128.774 45.3369C129.14 45.3369 129.436 45.5842 129.436 45.8887V63.8877C129.436 63.9911 129.415 64.2168 129.221 64.3057C129.221 64.3057 124.52 67.0649 116.772 67.0649C107.414 67.0649 96.3086 64.6634 96.3086 48.5469C96.3086 32.4308 106.008 29.0781 115.464 29.0781C123.673 29.0781 126.922 30.5932 127.454 30.9099C127.649 31.0265 127.707 31.1981 127.707 31.3408L126.127 36.9168C126.127 37.2214 125.746 37.563 125.333 37.4581C124.022 37.12 121.961 36.418 117.177 36.418C111.651 36.418 105.764 37.7813 105.764 48.1429C105.764 58.5024 111.417 59.7344 115.464 59.7344C118.894 59.7344 120.135 59.3822 120.135 59.3822V52.212H114.61C114.244 52.212 113.947 51.9643 113.947 51.6598V45.8887C113.947 45.5842 114.244 45.3369 114.61 45.3369H128.774ZM201.771 31.0092V65.7872C201.77 66.0937 201.478 66.3433 201.113 66.3433H193.12C192.755 66.3433 192.459 66.0937 192.459 65.7872C192.459 65.7861 192.481 50.9113 192.481 50.9113H180.048V65.7872C180.048 66.0937 179.755 66.3433 179.39 66.3433H171.416C171.053 66.3433 170.756 66.0937 170.756 65.7872V31.0092C170.756 30.7023 171.053 30.4543 171.416 30.4543H179.39C179.755 30.4543 180.048 30.7023 180.048 31.0092V43.8533H192.481L192.478 31.0092C192.478 30.7023 192.774 30.4543 193.139 30.4543H201.114C201.479 30.4543 201.771 30.7023 201.771 31.0092ZM143.824 35.5729C143.824 37.9635 141.521 39.9029 138.681 39.9029C135.843 39.9029 133.539 37.9635 133.539 35.5729C133.539 33.18 135.843 31.246 138.681 31.246C141.521 31.246 143.824 33.18 143.824 35.5729ZM143.254 42.3972V65.4507C143.254 66.0166 143.061 66.3383 142.275 66.3383H135.112C134.458 66.3383 133.952 66.137 133.952 65.4617V42.4615C133.952 42.1566 134.279 41.8434 134.644 41.8434H142.594C142.959 41.8434 143.254 42.0927 143.254 42.3972ZM232.082 41.8956C232.446 41.8956 232.743 42.1449 232.743 42.4518L232.745 65.7974C232.745 66.1032 232.448 66.3527 232.086 66.3527L226.976 66.3714C226.72 66.3714 226.484 66.2202 226.393 66.0704C226.302 65.9202 226.102 64.6535 226.102 64.6535C226.102 64.6535 221.894 67.057 216.672 67.057C210.31 67.057 205.683 65.3649 205.683 58.4485V42.4518C205.683 42.1449 205.981 41.8956 206.344 41.8956H214.376C214.739 41.8956 215.034 42.1449 215.034 42.4518V57.3226C215.034 59.6512 215.791 60.7303 218.645 60.7303C221.499 60.7303 223.509 59.5042 223.509 59.5042V42.4518C223.509 42.1449 223.804 41.8956 224.168 41.8956H232.082ZM253.713 41.1144C258.211 41.1144 264.868 42.5153 264.868 53.2351C264.868 63.9549 260.7 67.0272 253.431 67.0272C247.24 67.0272 243.971 64.4448 243.971 64.4448C243.971 64.4448 243.772 65.8612 243.634 66.048C243.494 66.236 243.305 66.3436 243.054 66.3436H237.505C237.141 66.3436 236.846 66.094 236.846 65.7871V31.0091C236.846 30.7022 237.141 30.4542 237.505 30.4542H245.503C245.866 30.4542 246.161 30.7022 246.161 31.0091V42.7858C246.161 42.7858 249.218 41.1144 253.713 41.1144ZM250.592 60.7091C254.432 60.8058 255.671 59.6265 255.671 53.6523C255.671 47.9867 252.925 47.2695 250.075 47.482C247.821 47.6497 245.985 48.5881 245.985 48.5881V59.6016C245.985 59.6016 247.847 60.6393 250.592 60.7091ZM166.175 41.8402C166.54 41.8402 166.836 42.0875 166.836 42.3944V47.7516C166.836 48.059 166.54 48.3074 166.175 48.3074H160.192C160.192 48.3074 160.193 56.6124 160.193 58.0854C160.193 59.5591 161.188 60.6975 164.128 60.6975C165.045 60.6975 165.937 60.5793 166.286 60.5793C166.636 60.5793 166.948 60.8278 166.948 61.1347L166.941 65.8399C166.941 66.0613 166.803 66.2657 166.566 66.3383C166.174 66.4587 163.802 66.9895 161.817 66.9895C157.477 66.9895 151.044 66.2388 151.044 58.5967V48.3074H146.864C146.5 48.3074 146.205 48.059 146.205 47.7516V43.4746C146.205 43.2224 146.407 43.0109 146.683 42.9447C146.959 42.8779 151.044 42.0563 151.044 42.0563V35.2503C151.044 34.9964 151.215 34.8798 151.531 34.8798H159.683C160.03 34.8798 160.184 35.0046 160.184 35.2538C160.184 35.2554 160.193 41.8402 160.193 41.8402H166.175Z" fill="white"/>
</svg>
