<svg width="141" height="39" viewBox="0 0 141 39" fill="none" xmlns="http://www.w3.org/2000/svg">
<path fill-rule="evenodd" clip-rule="evenodd" d="M27.3123 16.3369C27.6169 16.3369 27.8637 16.5842 27.8637 16.8887V34.8877C27.8637 34.9911 27.8462 35.2168 27.6848 35.3057C27.6848 35.3057 23.7677 38.0649 17.3107 38.0649C9.51219 38.0649 0.257812 35.6634 0.257812 19.5469C0.257812 3.43083 8.34102 0.078125 16.2207 0.078125C23.0611 0.078125 25.7687 1.59316 26.2126 1.90989C26.3748 2.02651 26.4232 2.19808 26.4232 2.34081L25.1062 7.9168C25.1062 8.22136 24.7887 8.56299 24.4451 8.45807C23.3524 8.12 21.6349 7.41803 17.6485 7.41803C13.0431 7.41803 8.13744 8.78135 8.13744 19.1429C8.13744 29.5024 12.8485 30.7344 16.2207 30.7344C19.0793 30.7344 20.1132 30.3822 20.1132 30.3822V23.212H15.5086C15.204 23.212 14.9567 22.9643 14.9567 22.6598V16.8887C14.9567 16.5842 15.204 16.3369 15.5086 16.3369H27.3123ZM88.1435 2.0092V36.7872C88.1426 37.0937 87.8992 37.3433 87.595 37.3433H80.9337C80.6296 37.3433 80.3834 37.0937 80.3834 36.7872C80.3834 36.7861 80.4012 21.9113 80.4012 21.9113H70.041V36.7872C70.041 37.0937 69.7967 37.3433 69.4925 37.3433H62.8471C62.5448 37.3433 62.2977 37.0937 62.2977 36.7872V2.0092C62.2977 1.7023 62.5448 1.45427 62.8471 1.45427H69.4925C69.7967 1.45427 70.041 1.7023 70.041 2.0092V14.8533H80.4012L80.3993 2.0092C80.3993 1.7023 80.6455 1.45427 80.9497 1.45427H87.596C87.9002 1.45427 88.1435 1.7023 88.1435 2.0092ZM39.8539 6.57285C39.8539 8.96349 37.9352 10.9029 35.568 10.9029C33.2031 10.9029 31.2833 8.96349 31.2833 6.57285C31.2833 4.17997 33.2031 2.246 35.568 2.246C37.9352 2.246 39.8539 4.17997 39.8539 6.57285ZM39.3787 13.3972V36.4507C39.3787 37.0166 39.218 37.3383 38.5632 37.3383H32.5941C32.0489 37.3383 31.6277 37.137 31.6277 36.4617V13.4615C31.6277 13.1566 31.8995 12.8434 32.2037 12.8434H38.8288C39.133 12.8434 39.3787 13.0927 39.3787 13.3972ZM113.402 12.8956C113.706 12.8956 113.953 13.1449 113.953 13.4518L113.955 36.7974C113.955 37.1032 113.708 37.3527 113.405 37.3527L109.148 37.3714C108.934 37.3714 108.738 37.2202 108.662 37.0704C108.586 36.9202 108.419 35.6535 108.419 35.6535C108.419 35.6535 104.912 38.057 100.561 38.057C95.2587 38.057 91.4035 36.3649 91.4035 29.4485V13.4518C91.4035 13.1449 91.6515 12.8956 91.9538 12.8956H98.6469C98.9502 12.8956 99.1954 13.1449 99.1954 13.4518V28.3226C99.1954 30.6512 99.8263 31.7303 102.205 31.7303C104.583 31.7303 106.258 30.5042 106.258 30.5042V13.4518C106.258 13.1449 106.504 12.8956 106.808 12.8956H113.402ZM131.428 12.1144C135.177 12.1144 140.724 13.5153 140.724 24.2351C140.724 34.9549 137.251 38.0272 131.193 38.0272C126.034 38.0272 123.31 35.4448 123.31 35.4448C123.31 35.4448 123.144 36.8612 123.029 37.048C122.912 37.236 122.755 37.3436 122.546 37.3436H117.921C117.618 37.3436 117.372 37.094 117.372 36.7871V2.00911C117.372 1.7022 117.618 1.45417 117.921 1.45417H124.586C124.889 1.45417 125.135 1.7022 125.135 2.00911V13.7858C125.135 13.7858 127.683 12.1144 131.428 12.1144ZM128.827 31.7091C132.027 31.8058 133.06 30.6265 133.06 24.6523C133.06 18.9867 130.771 18.2695 128.397 18.482C126.518 18.6497 124.988 19.5881 124.988 19.5881V30.6016C124.988 30.6016 126.54 31.6393 128.827 31.7091ZM58.4799 12.8402C58.7841 12.8402 59.0302 13.0875 59.0302 13.3944V18.7516C59.0302 19.059 58.7841 19.3074 58.4799 19.3074H53.494C53.494 19.3074 53.4949 27.6124 53.4949 29.0854C53.4949 30.5591 54.3242 31.6975 56.7736 31.6975C57.5383 31.6975 58.2815 31.5793 58.5725 31.5793C58.8636 31.5793 59.1238 31.8278 59.1238 32.1347L59.1182 36.8399C59.1182 37.0613 59.0031 37.2657 58.8056 37.3383C58.4789 37.4587 56.5022 37.9895 54.8483 37.9895C51.2316 37.9895 45.8708 37.2388 45.8708 29.5967V19.3074H42.3874C42.0836 19.3074 41.8379 19.059 41.8379 18.7516V14.4746C41.8379 14.2224 42.0068 14.0109 42.2362 13.9447C42.4662 13.8779 45.8708 13.0563 45.8708 13.0563V6.25032C45.8708 5.9964 46.0128 5.87977 46.2767 5.87977H53.07C53.3592 5.87977 53.4874 6.00463 53.4874 6.25378C53.4874 6.25538 53.4949 12.8402 53.4949 12.8402H58.4799Z" fill="white"/>
</svg>
