<svg width="360" height="100" viewBox="0 0 360 100" fill="none" xmlns="http://www.w3.org/2000/svg">
<path d="M132.563 66.2031C128.976 66.2031 125.674 65.4781 122.655 64.028C119.637 62.578 117.24 60.5805 115.464 58.0355C113.689 55.4905 112.801 52.6792 112.801 49.6015C112.801 46.5239 113.689 43.7126 115.464 41.1676C117.24 38.6226 119.637 36.6251 122.655 35.1751C125.674 33.725 128.976 33 132.563 33C135.368 33 137.996 33.4143 140.446 34.2429C142.932 35.0715 144.974 36.2404 146.572 37.7496L143.323 40.4574C142.115 39.2145 140.571 38.2675 138.688 37.6165C136.806 36.9358 134.782 36.5955 132.616 36.5955C129.917 36.5955 127.396 37.143 125.052 38.2379C122.744 39.3033 120.88 40.8273 119.459 42.81C118.074 44.7631 117.382 47.027 117.382 49.6015C117.382 52.1761 118.074 54.4548 119.459 56.4375C120.88 58.3906 122.762 59.9146 125.105 61.0096C127.449 62.0749 129.953 62.6076 132.616 62.6076C135.173 62.6076 137.304 62.282 139.008 61.631C140.748 60.9504 142.24 60.0626 143.482 58.9677C144.406 58.1391 145.151 57.1477 145.72 55.9936C146.288 54.8099 146.643 53.5078 146.785 52.0873H132.669V48.5806H150.993C151.171 49.4092 151.259 50.1786 151.259 50.8888C151.259 52.842 150.887 54.7507 150.141 56.615C149.395 58.4498 148.205 60.0626 146.572 61.4534C143.056 64.6199 138.387 66.2031 132.563 66.2031Z" fill="white"/>
<path d="M156.614 42.8544H160.928V46.1836H161.141C161.922 45.0295 163.094 44.0677 164.657 43.2983C166.219 42.5289 167.871 42.1442 169.611 42.1442C171.599 42.1442 173.322 42.5437 174.778 43.3427C176.269 44.1417 177.334 45.207 177.974 46.5387C178.932 45.207 180.193 44.1417 181.755 43.3427C183.354 42.5437 185.2 42.1442 187.295 42.1442C190.42 42.1442 192.764 42.9432 194.326 44.5412C195.924 46.1096 196.723 48.2551 196.723 50.9776V65.4929H192.249V51.5547C192.249 49.4536 191.734 47.9296 190.704 46.9826C189.674 46.0356 188.148 45.5621 186.123 45.5621C184.774 45.5621 183.549 45.8877 182.448 46.5387C181.347 47.1897 180.477 48.0627 179.838 49.1577C179.234 50.2526 178.932 51.4363 178.932 52.7088V65.4929H174.405V51.5991C174.405 49.4684 173.89 47.9296 172.86 46.9826C171.83 46.0356 170.321 45.5621 168.332 45.5621C166.983 45.5621 165.758 45.9024 164.657 46.5831C163.556 47.2341 162.686 48.1219 162.047 49.2464C161.443 50.3414 161.141 51.5251 161.141 52.7976V65.4929H156.614V42.8544Z" fill="white"/>
<path d="M210.847 66.2031C208.859 66.2031 207.083 65.8776 205.521 65.2265C203.958 64.5755 202.751 63.6877 201.899 62.5632C201.046 61.4091 200.62 60.107 200.62 58.6569C200.62 56.2599 201.703 54.3956 203.869 53.0639C206.036 51.7026 208.77 51.022 212.072 51.022C213.706 51.022 215.215 51.17 216.6 51.4659C218.021 51.7618 219.104 52.1021 219.849 52.4868V51.1108C219.849 49.424 219.139 48.0775 217.719 47.0714C216.298 46.0356 214.505 45.5177 212.339 45.5177C210.812 45.5177 209.409 45.7989 208.131 46.3611C206.852 46.8938 205.84 47.6484 205.095 48.625L201.685 46.4943C202.751 45.133 204.207 44.0677 206.053 43.2983C207.935 42.5289 210.013 42.1442 212.286 42.1442C215.979 42.1442 218.873 42.958 220.968 44.5856C223.099 46.1836 224.164 48.3734 224.164 51.1552V65.4929H219.849V62.2524H219.636C218.855 63.3474 217.683 64.2796 216.121 65.049C214.558 65.8184 212.8 66.2031 210.847 66.2031ZM211.273 62.8739C212.8 62.8739 214.221 62.5484 215.535 61.8973C216.849 61.2463 217.896 60.3733 218.678 59.2784C219.459 58.1834 219.849 56.9849 219.849 55.6829C218.997 55.2094 217.95 54.8247 216.707 54.5287C215.464 54.2328 214.15 54.0848 212.765 54.0848C210.279 54.0848 208.397 54.5139 207.119 55.3721C205.876 56.2303 205.254 57.34 205.254 58.7013C205.254 59.9442 205.822 60.9504 206.959 61.7198C208.095 62.4892 209.533 62.8739 211.273 62.8739Z" fill="white"/>
<path d="M232.454 38.6818C231.567 38.6818 230.803 38.4155 230.164 37.8828C229.525 37.3501 229.205 36.7139 229.205 35.9741C229.205 35.2343 229.525 34.6128 230.164 34.1097C230.803 33.5771 231.567 33.3107 232.454 33.3107C233.342 33.3107 234.106 33.5771 234.745 34.1097C235.384 34.6128 235.704 35.2343 235.704 35.9741C235.704 36.7139 235.384 37.3501 234.745 37.8828C234.141 38.4155 233.378 38.6818 232.454 38.6818ZM230.217 42.8544H234.692V65.4929H230.217V42.8544Z" fill="white"/>
<path d="M241.481 33.7102H246.009V65.4929H241.481V33.7102Z" fill="white"/>
</svg>
