<svg width="119" height="28" viewBox="0 0 119 28" fill="none" xmlns="http://www.w3.org/2000/svg">
<path d="M3.09408 27.7586H8.79359V13.9169L0.651428 7.81024L0.651428 25.3159C0.651428 26.6675 1.74655 27.7586 3.09408 27.7586Z" fill="#4285F4"/>
<path d="M28.3349 27.7586H34.0345C35.386 27.7586 36.4771 26.6635 36.4771 25.3159V7.81024L28.3349 13.9169" fill="#34A853"/>
<path d="M28.3349 3.33212V13.9169L36.4771 7.81024V4.55345C36.4771 1.5327 33.0289 -0.189372 30.6147 1.62226" fill="#FBBC05"/>
<path d="M8.79359 13.9169L8.79341 3.33204L18.564 10.66L28.3349 3.33212V13.9169L18.564 21.2448" fill="#EA4335"/>
<path d="M0.651428 4.55345L0.651428 7.81024L8.79359 13.9169L8.79341 3.33204L6.51378 1.62226C4.09556 -0.189372 0.651428 1.5327 0.651428 4.55345Z" fill="#C5221F"/>
<path d="M63.3763 24.617C61.6304 24.617 60.0227 24.1935 58.5534 23.3464C57.084 22.4994 55.9172 21.3326 55.0529 19.8459C54.1886 18.3593 53.7564 16.7171 53.7564 14.9193C53.7564 13.1215 54.1886 11.4793 55.0529 9.99262C55.9172 8.50598 57.084 7.33915 58.5534 6.49211C60.0227 5.64507 61.6304 5.22155 63.3763 5.22155C64.7419 5.22155 66.0211 5.46356 67.2139 5.94758C68.4239 6.4316 69.4179 7.11442 70.1958 7.99603L68.6141 9.57775C68.0264 8.85171 67.2744 8.29855 66.3582 7.91824C65.442 7.52065 64.4567 7.32186 63.4022 7.32186C62.0885 7.32186 60.8611 7.64166 59.7202 8.28126C58.5966 8.90357 57.6891 9.79383 56.9976 10.952C56.3234 12.0929 55.9864 13.4153 55.9864 14.9193C55.9864 16.4232 56.3234 17.7543 56.9976 18.9125C57.6891 20.0534 58.6053 20.9436 59.7462 21.5832C60.8871 22.2055 62.1058 22.5167 63.4022 22.5167C64.6469 22.5167 65.6841 22.3265 66.5138 21.9462C67.3608 21.5486 68.0869 21.03 68.6919 20.3904C69.1413 19.9064 69.5044 19.3273 69.7809 18.6532C70.0575 17.9617 70.2304 17.2011 70.2995 16.3713H63.4282V14.3229H72.348C72.4344 14.8069 72.4776 15.2564 72.4776 15.6712C72.4776 16.8121 72.2961 17.9271 71.9331 19.0162C71.5701 20.0879 70.991 21.03 70.1958 21.8425C68.4845 23.6922 66.2113 24.617 63.3763 24.617Z" fill="white"/>
<path d="M75.0839 10.978H77.1842V12.9227H77.288C77.6683 12.2485 78.2387 11.6867 78.9993 11.2372C79.7599 10.7878 80.5637 10.5631 81.4108 10.5631C82.3788 10.5631 83.2172 10.7964 83.926 11.2632C84.652 11.7299 85.1706 12.3522 85.4817 13.1301C85.9485 12.3522 86.5621 11.7299 87.3227 11.2632C88.1006 10.7964 88.9995 10.5631 90.0194 10.5631C91.5406 10.5631 92.6815 11.0298 93.4421 11.9633C94.22 12.8795 94.609 14.1327 94.609 15.7231V24.2021H92.4309V16.0602C92.4309 14.8328 92.1802 13.9426 91.6789 13.3894C91.1776 12.8362 90.4343 12.5597 89.449 12.5597C88.7921 12.5597 88.1957 12.7498 87.6598 13.1301C87.1239 13.5104 86.7004 14.0204 86.3893 14.66C86.0954 15.2996 85.9485 15.991 85.9485 16.7344V24.2021H83.7444V16.0861C83.7444 14.8415 83.4938 13.9426 82.9925 13.3894C82.4912 12.8362 81.7565 12.5597 80.7885 12.5597C80.1316 12.5597 79.5352 12.7585 78.9993 13.156C78.4634 13.5364 78.0399 14.0549 77.7288 14.7118C77.4349 15.3514 77.288 16.0429 77.288 16.7862V24.2021H75.0839V10.978Z" fill="white"/>
<path d="M101.484 24.617C100.516 24.617 99.6519 24.4268 98.8913 24.0465C98.1307 23.6662 97.543 23.1476 97.1281 22.4908C96.7132 21.8166 96.5058 21.056 96.5058 20.2089C96.5058 18.8087 97.033 17.7197 98.0875 16.9418C99.142 16.1466 100.473 15.749 102.081 15.749C102.876 15.749 103.611 15.8355 104.285 16.0083C104.976 16.1812 105.503 16.38 105.866 16.6047V15.8009C105.866 14.8156 105.521 14.029 104.829 13.4413C104.138 12.8362 103.265 12.5337 102.21 12.5337C101.467 12.5337 100.784 12.698 100.162 13.0264C99.5396 13.3376 99.0469 13.7784 98.6839 14.3488L97.0244 13.1042C97.543 12.309 98.2517 11.6867 99.1506 11.2372C100.067 10.7878 101.078 10.5631 102.184 10.5631C103.982 10.5631 105.391 11.0385 106.411 11.9892C107.448 12.9227 107.967 14.2019 107.967 15.8268V24.2021H105.866V22.3092H105.763C105.382 22.9488 104.812 23.4934 104.051 23.9428C103.291 24.3923 102.435 24.617 101.484 24.617ZM101.692 22.6723C102.435 22.6723 103.127 22.4821 103.766 22.1018C104.406 21.7215 104.916 21.2116 105.296 20.572C105.676 19.9324 105.866 19.2323 105.866 18.4716C105.452 18.1951 104.942 17.9703 104.337 17.7975C103.732 17.6246 103.092 17.5382 102.418 17.5382C101.208 17.5382 100.292 17.7888 99.6692 18.2901C99.0642 18.7914 98.7617 19.4397 98.7617 20.2349C98.7617 20.9609 99.0383 21.5486 99.5914 21.9981C100.145 22.4475 100.845 22.6723 101.692 22.6723Z" fill="white"/>
<path d="M112.002 8.54056C111.57 8.54056 111.199 8.38498 110.887 8.07382C110.576 7.76266 110.421 7.391 110.421 6.95884C110.421 6.52668 110.576 6.16366 110.887 5.86979C111.199 5.55864 111.57 5.40306 112.002 5.40306C112.435 5.40306 112.806 5.55864 113.117 5.86979C113.428 6.16366 113.584 6.52668 113.584 6.95884C113.584 7.391 113.428 7.76266 113.117 8.07382C112.823 8.38498 112.452 8.54056 112.002 8.54056ZM110.913 10.978H113.091V24.2021H110.913V10.978Z" fill="white"/>
<path d="M116.396 5.63643H118.6V24.2021H116.396V5.63643Z" fill="white"/>
</svg>
