<svg width="360" height="100" viewBox="0 0 360 100" fill="none" xmlns="http://www.w3.org/2000/svg">
<path d="M130.2 20H68.9996C66.0173 20 63.5996 22.0147 63.5996 24.5V75.5C63.5996 77.9853 66.0173 80 68.9996 80H130.2C133.182 80 135.6 77.9853 135.6 75.5V24.5C135.6 22.0147 133.182 20 130.2 20Z" fill="white"/>
<path fill-rule="evenodd" clip-rule="evenodd" d="M112.551 27.5029H104.646L111.235 37.1453L96.7468 27.5029H88.8428L96.0892 39.29L80.9431 27.5029H73.0391L80.9431 42.5017L73.0391 72.5029H80.9431L96.0892 40.3606L88.8428 72.5029H96.7468L111.235 38.2158L104.646 72.5029H112.551L127.039 35.0041L112.551 27.5029Z" fill="#000008"/>
<path fill-rule="evenodd" clip-rule="evenodd" d="M223.427 37.4525V66.3257L215.696 65.0123V38.7074L223.427 37.4525Z" fill="white"/>
<path fill-rule="evenodd" clip-rule="evenodd" d="M254.423 36.7671V43.5427L249.976 44.2268C246.143 44.8525 243.68 46.5098 243.68 50.161V66.3098L235.949 64.9964V49.1915C235.949 41.3147 241.494 38.9768 249.976 37.3781L254.423 36.7671Z" fill="white"/>
<path fill-rule="evenodd" clip-rule="evenodd" d="M172.25 36.7118C173.985 36.7599 175.684 37.14 177.215 37.8226C178.746 38.5052 180.068 39.472 181.079 40.6484C183.199 38.3655 186.685 36.8252 190.996 36.7703C196.471 36.7118 203.245 39.5655 203.245 48.1118V66.2289L195.514 64.9191V48.1228C195.514 45.2691 193.051 43.2167 189.367 43.2167C185.684 43.2167 183.221 45.2691 183.221 48.1228V66.2289L175.49 64.9191V48.1228C175.49 45.2691 173.027 43.2167 169.344 43.2167C165.66 43.2167 163.118 45.2691 163.118 48.1228V66.2289L155.348 64.9008V38.5959L163.083 37.3264V40.2935C164.19 39.1605 165.588 38.2501 167.176 37.63C168.763 37.0098 170.497 36.696 172.25 36.7118Z" fill="white"/>
<path fill-rule="evenodd" clip-rule="evenodd" d="M278.673 60.8482C272.654 60.8482 268.685 57.2555 268.685 51.8335C268.685 46.4701 272.719 42.8738 278.673 42.8738C284.283 42.8738 287.975 46.4116 287.975 51.8335C287.975 57.2555 284.283 60.8482 278.673 60.8482ZM278.673 36.8262C267.934 36.8262 260.747 42.8189 260.747 51.8921C260.747 60.9652 267.934 67.0128 278.673 67.0128C289.003 67.0128 295.843 60.9652 295.843 51.8921C295.843 42.8189 289.003 36.8262 278.673 36.8262Z" fill="white"/>
<path fill-rule="evenodd" clip-rule="evenodd" d="M219.665 24.9355C222.374 24.9355 224.156 26.5636 224.156 28.9782C224.156 31.3929 222.374 33.0209 219.665 33.0209C216.82 33.0209 214.972 31.3929 214.972 28.9782C214.972 26.5636 216.816 24.9355 219.665 24.9355Z" fill="white"/>
</svg>
