<svg width="31" height="32" viewBox="0 0 31 32" fill="none" xmlns="http://www.w3.org/2000/svg">
<path id="Vector" d="M15.25 0.979004C6.82421 0.979004 0 7.80322 0 16.229C0 23.3959 4.91764 29.344 11.5524 31.0209C11.4758 30.8301 11.4381 30.5627 11.4381 30.2966V27.7035H9.53157C8.50236 27.7035 7.54843 27.2466 7.12921 26.4069C6.63343 25.4919 6.55685 24.0811 5.29921 23.2038C4.91764 22.8988 5.22264 22.5938 5.64185 22.6314C6.44264 22.8598 7.09028 23.3946 7.70028 24.194C8.31028 24.9948 8.57764 25.1856 9.72106 25.1856C10.2545 25.1856 11.0929 25.148 11.8561 25.0325C12.2753 23.9643 12.9995 23.0117 13.8769 22.5548C8.76842 21.9448 6.32843 19.4283 6.32843 15.9967C6.32843 14.5093 6.97606 13.0985 8.04421 11.8785C7.70157 10.6962 7.24343 8.25618 8.19736 7.30354C10.4855 7.30354 11.8574 8.7909 12.2 9.17118C13.3434 8.7896 14.6024 8.56118 15.8976 8.56118C17.2319 8.56118 18.4519 8.7896 19.5953 9.17118C19.9379 8.7896 21.3111 7.30354 23.5979 7.30354C24.5129 8.21854 24.0937 10.6962 23.7121 11.8785C24.7803 13.0609 25.3903 14.5093 25.3903 15.9967C25.3903 19.4283 22.9879 21.9448 17.9184 22.4783C19.3292 23.2025 20.3208 25.2609 20.3208 26.7859V30.259C20.3208 30.3732 20.2831 30.4874 20.2831 30.6016C26.23 28.5432 30.5 22.9014 30.5 16.229C30.5 7.80322 23.6758 0.979004 15.25 0.979004Z" fill="black"/>
</svg>
