<svg width="221" height="51" viewBox="0 0 221 51" fill="none" xmlns="http://www.w3.org/2000/svg">
<path d="M24.142 14.596C24.0407 15.66 23.9647 16.6987 23.914 17.712C23.8887 18.7 23.876 19.46 23.876 19.992C23.876 20.5747 23.8887 21.132 23.914 21.664C23.9393 22.196 23.9647 22.652 23.99 23.032H23.116C22.8627 21.132 22.5207 19.6373 22.09 18.548C21.6847 17.4587 21.0893 16.6733 20.304 16.192C19.5187 15.7107 18.3913 15.47 16.922 15.47H15.288V37.13C15.288 38.1433 15.3767 38.9033 15.554 39.41C15.7567 39.9167 16.1367 40.2587 16.694 40.436C17.2767 40.588 18.1127 40.6893 19.202 40.74V41.5C18.4927 41.4493 17.5807 41.424 16.466 41.424C15.3513 41.3987 14.2113 41.386 13.046 41.386C11.83 41.386 10.6773 41.3987 9.588 41.424C8.524 41.424 7.66267 41.4493 7.004 41.5V40.74C8.09333 40.6893 8.91667 40.588 9.474 40.436C10.0313 40.2587 10.4113 39.9167 10.614 39.41C10.8167 38.9033 10.918 38.1433 10.918 37.13V15.47H9.246C7.82733 15.47 6.71267 15.7107 5.902 16.192C5.09133 16.6733 4.48333 17.4587 4.078 18.548C3.67267 19.6373 3.34333 21.132 3.09 23.032H2.216C2.26667 22.652 2.292 22.196 2.292 21.664C2.31733 21.132 2.33 20.5747 2.33 19.992C2.33 19.46 2.30467 18.7 2.254 17.712C2.22867 16.6987 2.16533 15.66 2.064 14.596C3.15333 14.6213 4.344 14.6467 5.636 14.672C6.928 14.6973 8.23267 14.71 9.55 14.71C10.8673 14.71 12.058 14.71 13.122 14.71C14.186 14.71 15.364 14.71 16.656 14.71C17.948 14.71 19.2527 14.6973 20.57 14.672C21.8873 14.6467 23.078 14.6213 24.142 14.596ZM32.5727 11.746V25.578C33.206 24.0073 34.0927 22.918 35.2327 22.31C36.398 21.6767 37.6267 21.36 38.9187 21.36C39.932 21.36 40.7553 21.4993 41.3887 21.778C42.0473 22.0313 42.592 22.386 43.0227 22.842C43.4787 23.3233 43.808 23.944 44.0107 24.704C44.2133 25.464 44.3147 26.49 44.3147 27.782V37.966C44.3147 39.03 44.5173 39.752 44.9227 40.132C45.3533 40.512 46.0627 40.702 47.0507 40.702V41.5C46.5947 41.4747 45.9107 41.4493 44.9987 41.424C44.0867 41.3733 43.2 41.348 42.3387 41.348C41.452 41.348 40.578 41.3733 39.7167 41.424C38.8807 41.4493 38.26 41.4747 37.8547 41.5V40.702C38.716 40.702 39.324 40.512 39.6787 40.132C40.0333 39.752 40.2107 39.03 40.2107 37.966V26.718C40.2107 25.9833 40.1473 25.3247 40.0207 24.742C39.894 24.134 39.6153 23.6527 39.1847 23.298C38.7793 22.918 38.1713 22.728 37.3607 22.728C36.4487 22.728 35.6253 22.994 34.8907 23.526C34.1813 24.0327 33.6113 24.742 33.1807 25.654C32.7753 26.566 32.5727 27.6047 32.5727 28.77V37.966C32.5727 39.03 32.75 39.752 33.1047 40.132C33.4593 40.512 34.0673 40.702 34.9287 40.702V41.5C34.498 41.4747 33.8647 41.4493 33.0287 41.424C32.218 41.3733 31.382 41.348 30.5207 41.348C29.634 41.348 28.722 41.3733 27.7847 41.424C26.8727 41.4493 26.1887 41.4747 25.7327 41.5V40.702C26.7207 40.702 27.4173 40.512 27.8227 40.132C28.2533 39.752 28.4687 39.03 28.4687 37.966V16.306C28.4687 15.166 28.266 14.33 27.8607 13.798C27.4807 13.2407 26.7713 12.962 25.7327 12.962V12.164C26.5433 12.24 27.3287 12.278 28.0887 12.278C28.9247 12.278 29.7227 12.24 30.4827 12.164C31.2427 12.0627 31.9393 11.9233 32.5727 11.746ZM58.0983 21.36C59.7956 21.36 61.3029 21.7147 62.6203 22.424C63.9376 23.1333 64.9889 24.248 65.7743 25.768C66.5596 27.288 66.9523 29.2767 66.9523 31.734C66.9523 34.1913 66.5596 36.18 65.7743 37.7C64.9889 39.1947 63.9376 40.2967 62.6203 41.006C61.3029 41.69 59.7956 42.032 58.0983 42.032C56.4263 42.032 54.9189 41.69 53.5763 41.006C52.2336 40.2967 51.1696 39.1947 50.3843 37.7C49.6243 36.18 49.2443 34.1913 49.2443 31.734C49.2443 29.2767 49.6243 27.288 50.3843 25.768C51.1696 24.248 52.2336 23.1333 53.5763 22.424C54.9189 21.7147 56.4263 21.36 58.0983 21.36ZM58.0983 22.12C56.7809 22.12 55.7043 22.88 54.8683 24.4C54.0323 25.8947 53.6143 28.3393 53.6143 31.734C53.6143 35.1287 54.0323 37.5733 54.8683 39.068C55.7043 40.5373 56.7809 41.272 58.0983 41.272C59.3903 41.272 60.4543 40.5373 61.2903 39.068C62.1516 37.5733 62.5823 35.1287 62.5823 31.734C62.5823 28.3393 62.1516 25.8947 61.2903 24.4C60.4543 22.88 59.3903 22.12 58.0983 22.12ZM82.8633 21.36C83.8766 21.36 84.6999 21.4993 85.3333 21.778C85.9919 22.0313 86.5366 22.386 86.9673 22.842C87.4233 23.3233 87.7399 23.944 87.9173 24.704C88.1199 25.464 88.2213 26.49 88.2213 27.782V37.966C88.2213 39.03 88.4239 39.752 88.8293 40.132C89.2599 40.512 89.9693 40.702 90.9573 40.702V41.5C90.5266 41.4747 89.8553 41.4493 88.9433 41.424C88.0313 41.3733 87.1319 41.348 86.2453 41.348C85.3839 41.348 84.5226 41.3733 83.6613 41.424C82.8253 41.4493 82.1919 41.4747 81.7613 41.5V40.702C82.6226 40.702 83.2306 40.512 83.5853 40.132C83.9399 39.752 84.1173 39.03 84.1173 37.966V26.718C84.1173 25.9833 84.0539 25.3247 83.9273 24.742C83.8006 24.134 83.5346 23.6527 83.1293 23.298C82.7239 22.918 82.1159 22.728 81.3053 22.728C80.3679 22.728 79.5319 22.994 78.7973 23.526C78.0879 24.058 77.5179 24.7927 77.0873 25.73C76.6819 26.642 76.4793 27.668 76.4793 28.808V37.966C76.4793 39.03 76.6566 39.752 77.0113 40.132C77.3913 40.512 77.9993 40.702 78.8353 40.702V41.5C78.4299 41.4747 77.8093 41.4493 76.9733 41.424C76.1626 41.3733 75.3139 41.348 74.4273 41.348C73.5659 41.348 72.6666 41.3733 71.7293 41.424C70.7919 41.4493 70.0953 41.4747 69.6393 41.5V40.702C70.6273 40.702 71.3239 40.512 71.7293 40.132C72.1599 39.752 72.3753 39.03 72.3753 37.966V26.034C72.3753 24.894 72.1853 24.058 71.8053 23.526C71.4253 22.9687 70.7033 22.69 69.6393 22.69V21.892C70.4499 21.968 71.2353 22.006 71.9953 22.006C72.8566 22.006 73.6546 21.968 74.3893 21.892C75.1493 21.7907 75.8459 21.6513 76.4793 21.474V25.616C77.1379 24.0453 78.0373 22.9433 79.1773 22.31C80.3426 21.6767 81.5713 21.36 82.8633 21.36ZM99.3458 48.644C97.9271 48.644 96.6098 48.5047 95.3938 48.226C94.2031 47.9473 93.2404 47.5167 92.5058 46.934C91.7964 46.3767 91.4418 45.6547 91.4418 44.768C91.4418 43.932 91.7964 43.1973 92.5058 42.564C93.2151 41.9307 94.2158 41.4493 95.5078 41.12L95.7738 41.728C95.2418 41.956 94.8238 42.3233 94.5198 42.83C94.2411 43.3367 94.1018 43.894 94.1018 44.502C94.1018 45.6167 94.6211 46.478 95.6598 47.086C96.6984 47.694 98.0664 47.998 99.7638 47.998C100.904 47.998 101.98 47.846 102.994 47.542C104.032 47.2633 104.868 46.7947 105.502 46.136C106.16 45.4773 106.49 44.6287 106.49 43.59C106.49 42.7793 106.198 42.0953 105.616 41.538C105.033 41.006 103.88 40.74 102.158 40.74H99.4978C98.6111 40.74 97.7878 40.664 97.0278 40.512C96.2678 40.36 95.6471 40.0687 95.1658 39.638C94.7098 39.182 94.4818 38.5487 94.4818 37.738C94.4818 36.826 94.8618 35.9647 95.6218 35.154C96.3818 34.3433 97.6611 33.5453 99.4598 32.76L99.9158 33.102C99.1811 33.5073 98.5224 33.9253 97.9398 34.356C97.3824 34.7613 97.1038 35.268 97.1038 35.876C97.1038 36.6867 97.6864 37.092 98.8518 37.092H103.374C104.564 37.092 105.641 37.2567 106.604 37.586C107.566 37.89 108.339 38.384 108.922 39.068C109.504 39.752 109.796 40.6513 109.796 41.766C109.796 42.9567 109.403 44.0713 108.618 45.11C107.858 46.174 106.705 47.0227 105.16 47.656C103.614 48.3147 101.676 48.644 99.3458 48.644ZM99.5738 33.406C98.2818 33.406 97.1038 33.2033 96.0398 32.798C94.9758 32.3673 94.1398 31.7087 93.5318 30.822C92.9238 29.9353 92.6198 28.7953 92.6198 27.402C92.6198 26.0087 92.9238 24.8687 93.5318 23.982C94.1398 23.07 94.9758 22.4113 96.0398 22.006C97.1038 21.5753 98.2818 21.36 99.5738 21.36C100.916 21.36 102.107 21.5753 103.146 22.006C104.184 22.4113 105.008 23.07 105.616 23.982C106.224 24.8687 106.528 26.0087 106.528 27.402C106.528 28.7953 106.224 29.9353 105.616 30.822C105.008 31.7087 104.184 32.3673 103.146 32.798C102.107 33.2033 100.916 33.406 99.5738 33.406ZM99.5738 32.722C100.46 32.722 101.144 32.342 101.626 31.582C102.107 30.822 102.348 29.4287 102.348 27.402C102.348 25.3753 102.107 23.982 101.626 23.222C101.144 22.4367 100.46 22.044 99.5738 22.044C98.7378 22.044 98.0664 22.4367 97.5598 23.222C97.0531 23.982 96.7998 25.3753 96.7998 27.402C96.7998 29.4287 97.0531 30.822 97.5598 31.582C98.0664 32.342 98.7378 32.722 99.5738 32.722ZM105.198 24.552L104.514 24.286C104.868 23.3993 105.476 22.6267 106.338 21.968C107.199 21.3093 108.098 20.98 109.036 20.98C109.745 20.98 110.302 21.1827 110.708 21.588C111.138 21.968 111.354 22.5127 111.354 23.222C111.354 24.0073 111.138 24.5647 110.708 24.894C110.302 25.2233 109.872 25.388 109.416 25.388C109.01 25.388 108.63 25.2487 108.276 24.97C107.946 24.6913 107.756 24.2607 107.706 23.678C107.655 23.07 107.845 22.2973 108.276 21.36L108.694 21.512C107.68 21.9173 106.933 22.348 106.452 22.804C105.996 23.2347 105.578 23.8173 105.198 24.552ZM113.031 14.596C113.613 14.6213 114.361 14.6467 115.273 14.672C116.21 14.6973 117.135 14.71 118.047 14.71C119.263 14.71 120.415 14.6973 121.505 14.672C122.619 14.6467 123.405 14.634 123.861 14.634C127.078 14.634 129.485 15.3307 131.081 16.724C132.677 18.1173 133.475 19.916 133.475 22.12C133.475 23.032 133.31 23.9947 132.981 25.008C132.677 25.996 132.132 26.9207 131.347 27.782C130.561 28.618 129.497 29.302 128.155 29.834C126.812 30.366 125.102 30.632 123.025 30.632H119.301V29.872H122.645C124.342 29.872 125.634 29.53 126.521 28.846C127.433 28.162 128.041 27.2627 128.345 26.148C128.674 25.0333 128.839 23.83 128.839 22.538C128.839 20.1313 128.408 18.3327 127.547 17.142C126.685 15.9513 125.191 15.356 123.063 15.356C121.973 15.356 121.251 15.5713 120.897 16.002C120.567 16.4327 120.403 17.3067 120.403 18.624V37.396C120.403 38.3333 120.504 39.0427 120.707 39.524C120.909 39.98 121.289 40.284 121.847 40.436C122.404 40.588 123.227 40.6767 124.317 40.702V41.5C123.633 41.4493 122.746 41.424 121.657 41.424C120.567 41.3987 119.44 41.386 118.275 41.386C117.261 41.386 116.286 41.3987 115.349 41.424C114.437 41.424 113.664 41.4493 113.031 41.5V40.74C113.892 40.6893 114.538 40.588 114.969 40.436C115.399 40.284 115.678 39.98 115.805 39.524C115.957 39.068 116.033 38.384 116.033 37.472V18.624C116.033 17.6867 115.957 17.0027 115.805 16.572C115.678 16.116 115.387 15.812 114.931 15.66C114.5 15.4827 113.867 15.3813 113.031 15.356V14.596ZM141.748 11.746V25.578C142.382 24.0073 143.268 22.918 144.408 22.31C145.574 21.6767 146.802 21.36 148.094 21.36C149.108 21.36 149.931 21.4993 150.564 21.778C151.223 22.0313 151.768 22.386 152.198 22.842C152.654 23.3233 152.984 23.944 153.186 24.704C153.389 25.464 153.49 26.49 153.49 27.782V37.966C153.49 39.03 153.693 39.752 154.098 40.132C154.529 40.512 155.238 40.702 156.226 40.702V41.5C155.77 41.4747 155.086 41.4493 154.174 41.424C153.262 41.3733 152.376 41.348 151.514 41.348C150.628 41.348 149.754 41.3733 148.892 41.424C148.056 41.4493 147.436 41.4747 147.03 41.5V40.702C147.892 40.702 148.5 40.512 148.854 40.132C149.209 39.752 149.386 39.03 149.386 37.966V26.718C149.386 25.9833 149.323 25.3247 149.196 24.742C149.07 24.134 148.791 23.6527 148.36 23.298C147.955 22.918 147.347 22.728 146.536 22.728C145.624 22.728 144.801 22.994 144.066 23.526C143.357 24.0327 142.787 24.742 142.356 25.654C141.951 26.566 141.748 27.6047 141.748 28.77V37.966C141.748 39.03 141.926 39.752 142.28 40.132C142.635 40.512 143.243 40.702 144.104 40.702V41.5C143.674 41.4747 143.04 41.4493 142.204 41.424C141.394 41.3733 140.558 41.348 139.696 41.348C138.81 41.348 137.898 41.3733 136.96 41.424C136.048 41.4493 135.364 41.4747 134.908 41.5V40.702C135.896 40.702 136.593 40.512 136.998 40.132C137.429 39.752 137.644 39.03 137.644 37.966V16.306C137.644 15.166 137.442 14.33 137.036 13.798C136.656 13.2407 135.947 12.962 134.908 12.962V12.164C135.719 12.24 136.504 12.278 137.264 12.278C138.1 12.278 138.898 12.24 139.658 12.164C140.418 12.0627 141.115 11.9233 141.748 11.746ZM163.132 41.766C162.068 41.766 161.156 41.5633 160.396 41.158C159.636 40.7527 159.066 40.1953 158.686 39.486C158.306 38.7767 158.116 37.966 158.116 37.054C158.116 35.9393 158.369 35.04 158.876 34.356C159.383 33.6467 160.029 33.0767 160.814 32.646C161.625 32.2153 162.473 31.8607 163.36 31.582C164.272 31.278 165.121 30.9993 165.906 30.746C166.717 30.4673 167.375 30.1507 167.882 29.796C168.414 29.4413 168.68 28.9727 168.68 28.39V25.806C168.68 24.894 168.528 24.172 168.224 23.64C167.945 23.0827 167.553 22.69 167.046 22.462C166.565 22.234 165.982 22.12 165.298 22.12C164.715 22.12 164.095 22.2087 163.436 22.386C162.777 22.538 162.258 22.8547 161.878 23.336C162.435 23.488 162.891 23.792 163.246 24.248C163.626 24.6787 163.816 25.2233 163.816 25.882C163.816 26.5913 163.575 27.1487 163.094 27.554C162.638 27.9593 162.055 28.162 161.346 28.162C160.561 28.162 159.978 27.9213 159.598 27.44C159.218 26.9333 159.028 26.3507 159.028 25.692C159.028 25.008 159.193 24.4507 159.522 24.02C159.877 23.5893 160.333 23.184 160.89 22.804C161.498 22.3987 162.271 22.0567 163.208 21.778C164.171 21.4993 165.235 21.36 166.4 21.36C167.489 21.36 168.427 21.4867 169.212 21.74C170.023 21.968 170.694 22.348 171.226 22.88C171.859 23.4627 172.277 24.1973 172.48 25.084C172.683 25.9453 172.784 26.9967 172.784 28.238V38.726C172.784 39.3593 172.86 39.8153 173.012 40.094C173.189 40.3473 173.468 40.474 173.848 40.474C174.101 40.474 174.342 40.4107 174.57 40.284C174.823 40.1573 175.115 39.9673 175.444 39.714L175.824 40.36C175.292 40.7907 174.747 41.1327 174.19 41.386C173.658 41.6393 172.974 41.766 172.138 41.766C171.327 41.766 170.669 41.6393 170.162 41.386C169.655 41.1327 169.275 40.7653 169.022 40.284C168.794 39.8027 168.68 39.2073 168.68 38.498C168.021 39.562 167.236 40.3727 166.324 40.93C165.412 41.4873 164.348 41.766 163.132 41.766ZM164.956 39.942C165.665 39.942 166.324 39.7393 166.932 39.334C167.565 38.9287 168.148 38.3207 168.68 37.51V29.948C168.401 30.3533 167.996 30.708 167.464 31.012C166.932 31.2907 166.362 31.582 165.754 31.886C165.146 32.19 164.563 32.5447 164.006 32.95C163.474 33.33 163.031 33.824 162.676 34.432C162.321 35.04 162.144 35.8127 162.144 36.75C162.144 37.738 162.397 38.5233 162.904 39.106C163.411 39.6633 164.095 39.942 164.956 39.942ZM189.918 21.36C190.88 21.36 191.691 21.4993 192.35 21.778C193.008 22.0313 193.54 22.386 193.946 22.842C194.402 23.3233 194.718 23.9693 194.896 24.78C195.073 25.5653 195.162 26.566 195.162 27.782V37.966C195.162 39.03 195.364 39.752 195.77 40.132C196.175 40.512 196.859 40.702 197.822 40.702V41.5C197.391 41.4747 196.72 41.4493 195.808 41.424C194.921 41.3733 194.047 41.348 193.186 41.348C192.324 41.348 191.476 41.3733 190.64 41.424C189.829 41.4493 189.208 41.4747 188.778 41.5V40.702C189.614 40.702 190.196 40.512 190.526 40.132C190.88 39.752 191.058 39.03 191.058 37.966V26.718C191.058 25.9833 191.007 25.3247 190.906 24.742C190.804 24.134 190.564 23.6527 190.184 23.298C189.829 22.918 189.259 22.728 188.474 22.728C187.587 22.728 186.789 22.994 186.08 23.526C185.396 24.058 184.838 24.7927 184.408 25.73C184.002 26.642 183.8 27.668 183.8 28.808V37.966C183.8 39.03 183.977 39.752 184.332 40.132C184.686 40.512 185.269 40.702 186.08 40.702V41.5C185.674 41.4747 185.066 41.4493 184.256 41.424C183.445 41.3733 182.609 41.348 181.748 41.348C180.886 41.348 179.987 41.3733 179.05 41.424C178.112 41.4493 177.416 41.4747 176.96 41.5V40.702C177.948 40.702 178.644 40.512 179.05 40.132C179.48 39.752 179.696 39.03 179.696 37.966V26.034C179.696 24.894 179.506 24.058 179.126 23.526C178.746 22.9687 178.024 22.69 176.96 22.69V21.892C177.77 21.968 178.556 22.006 179.316 22.006C180.177 22.006 180.975 21.968 181.71 21.892C182.47 21.7907 183.166 21.6513 183.8 21.474V25.616C184.458 24.096 185.332 23.0067 186.422 22.348C187.536 21.6893 188.702 21.36 189.918 21.36ZM201.356 21.36C202.318 21.36 203.129 21.4993 203.788 21.778C204.446 22.0313 204.978 22.386 205.384 22.842C205.84 23.3233 206.156 23.9693 206.334 24.78C206.511 25.5653 206.6 26.566 206.6 27.782V37.966C206.6 39.03 206.802 39.752 207.208 40.132C207.638 40.512 208.348 40.702 209.336 40.702V41.5C208.905 41.4747 208.234 41.4493 207.322 41.424C206.41 41.3733 205.51 41.348 204.624 41.348C203.762 41.348 202.914 41.3733 202.078 41.424C201.267 41.4493 200.646 41.4747 200.216 41.5V40.702C201.052 40.702 201.634 40.512 201.964 40.132C202.318 39.752 202.496 39.03 202.496 37.966V26.718C202.496 25.9833 202.445 25.3247 202.344 24.742C202.242 24.134 202.002 23.6527 201.622 23.298C201.242 22.918 200.646 22.728 199.836 22.728C198.949 22.728 198.151 23.0067 197.442 23.564C196.758 24.096 196.2 24.8307 195.77 25.768C195.364 26.68 195.162 27.706 195.162 28.846L195.01 25.692C195.694 24.02 196.606 22.88 197.746 22.272C198.911 21.664 200.114 21.36 201.356 21.36Z" fill="black"/>
<g filter="url(#filter0_d_2_261)">
<path d="M211 10V5C211 2.2386 213.239 0 216 0H221V5C221 7.76143 218.761 10 216 10H211Z" fill="black"/>
</g>
<defs>
<filter id="filter0_d_2_261" x="211" y="0" width="10" height="14" filterUnits="userSpaceOnUse" color-interpolation-filters="sRGB">
<feFlood flood-opacity="0" result="BackgroundImageFix"/>
<feColorMatrix in="SourceAlpha" type="matrix" values="0 0 0 0 0 0 0 0 0 0 0 0 0 0 0 0 0 0 127 0" result="hardAlpha"/>
<feOffset dy="4"/>
<feComposite in2="hardAlpha" operator="out"/>
<feColorMatrix type="matrix" values="0 0 0 0 0.709804 0 0 0 0 0.709804 0 0 0 0 0.709804 0 0 0 1 0"/>
<feBlend mode="normal" in2="BackgroundImageFix" result="effect1_dropShadow_2_261"/>
<feBlend mode="normal" in="SourceGraphic" in2="effect1_dropShadow_2_261" result="shape"/>
</filter>
</defs>
</svg>
